<?xml version="1.0" encoding="utf-8" standalone="no"?>
<!DOCTYPE svg PUBLIC "-//W3C//DTD SVG 1.1//EN"
  "http://www.w3.org/Graphics/SVG/1.1/DTD/svg11.dtd">
<svg xmlns:xlink="http://www.w3.org/1999/xlink" width="720pt" height="720pt" viewBox="0 0 720 720" xmlns="http://www.w3.org/2000/svg" version="1.1">
 <metadata>
  <rdf:RDF xmlns:dc="http://purl.org/dc/elements/1.1/" xmlns:cc="http://creativecommons.org/ns#" xmlns:rdf="http://www.w3.org/1999/02/22-rdf-syntax-ns#">
   <cc:Work>
    <dc:type rdf:resource="http://purl.org/dc/dcmitype/StillImage"/>
    <dc:date>2023-06-22T14:16:54.894925</dc:date>
    <dc:format>image/svg+xml</dc:format>
    <dc:creator>
     <cc:Agent>
      <dc:title>Matplotlib v3.7.1, https://matplotlib.org/</dc:title>
     </cc:Agent>
    </dc:creator>
   </cc:Work>
  </rdf:RDF>
 </metadata>
 <defs>
  <style type="text/css">*{stroke-linejoin: round; stroke-linecap: butt}</style>
 </defs>
 <g id="figure_1">
  <g id="patch_1">
   <path d="M 0 720 
L 720 720 
L 720 0 
L 0 0 
z
" style="fill: #ffffff"/>
  </g>
  <g id="axes_1">
   <g id="patch_2">
    <path d="M 90 640.8 
L 648 640.8 
L 648 86.4 
L 90 86.4 
z
" style="fill: #ffffff"/>
   </g>
   <g id="PathCollection_1">
    <defs>
     <path id="m07ad850205" d="M 0 3 
C 0.795609 3 1.55874 2.683901 2.12132 2.12132 
C 2.683901 1.55874 3 0.795609 3 0 
C 3 -0.795609 2.683901 -1.55874 2.12132 -2.12132 
C 1.55874 -2.683901 0.795609 -3 0 -3 
C -0.795609 -3 -1.55874 -2.683901 -2.12132 -2.12132 
C -2.683901 -1.55874 -3 -0.795609 -3 0 
C -3 0.795609 -2.683901 1.55874 -2.12132 2.12132 
C -1.55874 2.683901 -0.795609 3 0 3 
z
" style="stroke: #000000"/>
    </defs>
    <g clip-path="url(#p6df2d21578)">
     <use xlink:href="#m07ad850205" x="621.166276" y="117.368176" style="stroke: #000000"/>
     <use xlink:href="#m07ad850205" x="620.470191" y="118.359787" style="stroke: #000000"/>
     <use xlink:href="#m07ad850205" x="116.550716" y="455.886997" style="stroke: #000000"/>
     <use xlink:href="#m07ad850205" x="121.682065" y="459.418072" style="stroke: #000000"/>
     <use xlink:href="#m07ad850205" x="412.9265" y="577.374069" style="stroke: #000000"/>
     <use xlink:href="#m07ad850205" x="411.838078" y="577.23455" style="stroke: #000000"/>
     <use xlink:href="#m07ad850205" x="115.363636" y="456.195831" style="stroke: #000000"/>
     <use xlink:href="#m07ad850205" x="414.467894" y="573.129536" style="stroke: #000000"/>
     <use xlink:href="#m07ad850205" x="115.660501" y="453.815714" style="stroke: #000000"/>
     <use xlink:href="#m07ad850205" x="414.571538" y="576.333505" style="stroke: #000000"/>
     <use xlink:href="#m07ad850205" x="391.152347" y="613.240481" style="stroke: #000000"/>
     <use xlink:href="#m07ad850205" x="389.167644" y="614.008854" style="stroke: #000000"/>
     <use xlink:href="#m07ad850205" x="541.440493" y="332.130832" style="stroke: #000000"/>
     <use xlink:href="#m07ad850205" x="535.395846" y="349.104896" style="stroke: #000000"/>
     <use xlink:href="#m07ad850205" x="124.746829" y="464.559628" style="stroke: #000000"/>
     <use xlink:href="#m07ad850205" x="134.903805" y="470.562751" style="stroke: #000000"/>
     <use xlink:href="#m07ad850205" x="415.484813" y="574.026899" style="stroke: #000000"/>
     <use xlink:href="#m07ad850205" x="413.108325" y="575.511718" style="stroke: #000000"/>
     <use xlink:href="#m07ad850205" x="125.069219" y="465.989055" style="stroke: #000000"/>
     <use xlink:href="#m07ad850205" x="414.769616" y="574.826593" style="stroke: #000000"/>
     <use xlink:href="#m07ad850205" x="121.696483" y="461.328714" style="stroke: #000000"/>
     <use xlink:href="#m07ad850205" x="414.771173" y="573.665174" style="stroke: #000000"/>
     <use xlink:href="#m07ad850205" x="540.134296" y="337.082783" style="stroke: #000000"/>
     <use xlink:href="#m07ad850205" x="378.5522" y="598.931181" style="stroke: #000000"/>
     <use xlink:href="#m07ad850205" x="380.372513" y="600.48851" style="stroke: #000000"/>
     <use xlink:href="#m07ad850205" x="382.639993" y="600.623223" style="stroke: #000000"/>
     <use xlink:href="#m07ad850205" x="377.452222" y="597.396799" style="stroke: #000000"/>
     <use xlink:href="#m07ad850205" x="382.283013" y="600.033246" style="stroke: #000000"/>
     <use xlink:href="#m07ad850205" x="382.083163" y="599.74887" style="stroke: #000000"/>
     <use xlink:href="#m07ad850205" x="386.655531" y="598.254506" style="stroke: #000000"/>
     <use xlink:href="#m07ad850205" x="384.874261" y="597.269951" style="stroke: #000000"/>
     <use xlink:href="#m07ad850205" x="542.024019" y="334.751874" style="stroke: #000000"/>
     <use xlink:href="#m07ad850205" x="622.104684" y="114.195836" style="stroke: #000000"/>
     <use xlink:href="#m07ad850205" x="622.636364" y="111.6" style="stroke: #000000"/>
     <use xlink:href="#m07ad850205" x="380.071037" y="598.119177" style="stroke: #000000"/>
     <use xlink:href="#m07ad850205" x="383.738404" y="597.121412" style="stroke: #000000"/>
     <use xlink:href="#m07ad850205" x="381.166075" y="596.904106" style="stroke: #000000"/>
     <use xlink:href="#m07ad850205" x="380.390429" y="599.118475" style="stroke: #000000"/>
     <use xlink:href="#m07ad850205" x="219.219535" y="531.815723" style="stroke: #000000"/>
     <use xlink:href="#m07ad850205" x="226.675403" y="535.008122" style="stroke: #000000"/>
     <use xlink:href="#m07ad850205" x="540.923177" y="338.305488" style="stroke: #000000"/>
     <use xlink:href="#m07ad850205" x="404.653432" y="589.457977" style="stroke: #000000"/>
     <use xlink:href="#m07ad850205" x="403.519614" y="590.891778" style="stroke: #000000"/>
     <use xlink:href="#m07ad850205" x="390.744371" y="615.6" style="stroke: #000000"/>
     <use xlink:href="#m07ad850205" x="463.265819" y="518.93266" style="stroke: #000000"/>
    </g>
   </g>
   <g id="matplotlib.axis_1">
    <g id="xtick_1">
     <g id="line2d_1">
      <defs>
       <path id="mbee2ac2975" d="M 0 0 
L 0 3.5 
" style="stroke: #000000; stroke-width: 0.8"/>
      </defs>
      <g>
       <use xlink:href="#mbee2ac2975" x="111.602515" y="640.8" style="stroke: #000000; stroke-width: 0.8"/>
      </g>
     </g>
     <g id="text_1">
      <!-- −4 -->
      <g transform="translate(104.231422 655.398438) scale(0.1 -0.1)">
       <defs>
        <path id="DejaVuSans-2212" d="M 678 2272 
L 4684 2272 
L 4684 1741 
L 678 1741 
L 678 2272 
z
" transform="scale(0.015625)"/>
        <path id="DejaVuSans-34" d="M 2419 4116 
L 825 1625 
L 2419 1625 
L 2419 4116 
z
M 2253 4666 
L 3047 4666 
L 3047 1625 
L 3713 1625 
L 3713 1100 
L 3047 1100 
L 3047 0 
L 2419 0 
L 2419 1100 
L 313 1100 
L 313 1709 
L 2253 4666 
z
" transform="scale(0.015625)"/>
       </defs>
       <use xlink:href="#DejaVuSans-2212"/>
       <use xlink:href="#DejaVuSans-34" x="83.789062"/>
      </g>
     </g>
    </g>
    <g id="xtick_2">
     <g id="line2d_2">
      <g>
       <use xlink:href="#mbee2ac2975" x="187.479521" y="640.8" style="stroke: #000000; stroke-width: 0.8"/>
      </g>
     </g>
     <g id="text_2">
      <!-- −3 -->
      <g transform="translate(180.108427 655.398438) scale(0.1 -0.1)">
       <defs>
        <path id="DejaVuSans-33" d="M 2597 2516 
Q 3050 2419 3304 2112 
Q 3559 1806 3559 1356 
Q 3559 666 3084 287 
Q 2609 -91 1734 -91 
Q 1441 -91 1130 -33 
Q 819 25 488 141 
L 488 750 
Q 750 597 1062 519 
Q 1375 441 1716 441 
Q 2309 441 2620 675 
Q 2931 909 2931 1356 
Q 2931 1769 2642 2001 
Q 2353 2234 1838 2234 
L 1294 2234 
L 1294 2753 
L 1863 2753 
Q 2328 2753 2575 2939 
Q 2822 3125 2822 3475 
Q 2822 3834 2567 4026 
Q 2313 4219 1838 4219 
Q 1578 4219 1281 4162 
Q 984 4106 628 3988 
L 628 4550 
Q 988 4650 1302 4700 
Q 1616 4750 1894 4750 
Q 2613 4750 3031 4423 
Q 3450 4097 3450 3541 
Q 3450 3153 3228 2886 
Q 3006 2619 2597 2516 
z
" transform="scale(0.015625)"/>
       </defs>
       <use xlink:href="#DejaVuSans-2212"/>
       <use xlink:href="#DejaVuSans-33" x="83.789062"/>
      </g>
     </g>
    </g>
    <g id="xtick_3">
     <g id="line2d_3">
      <g>
       <use xlink:href="#mbee2ac2975" x="263.356526" y="640.8" style="stroke: #000000; stroke-width: 0.8"/>
      </g>
     </g>
     <g id="text_3">
      <!-- −2 -->
      <g transform="translate(255.985432 655.398438) scale(0.1 -0.1)">
       <defs>
        <path id="DejaVuSans-32" d="M 1228 531 
L 3431 531 
L 3431 0 
L 469 0 
L 469 531 
Q 828 903 1448 1529 
Q 2069 2156 2228 2338 
Q 2531 2678 2651 2914 
Q 2772 3150 2772 3378 
Q 2772 3750 2511 3984 
Q 2250 4219 1831 4219 
Q 1534 4219 1204 4116 
Q 875 4013 500 3803 
L 500 4441 
Q 881 4594 1212 4672 
Q 1544 4750 1819 4750 
Q 2544 4750 2975 4387 
Q 3406 4025 3406 3419 
Q 3406 3131 3298 2873 
Q 3191 2616 2906 2266 
Q 2828 2175 2409 1742 
Q 1991 1309 1228 531 
z
" transform="scale(0.015625)"/>
       </defs>
       <use xlink:href="#DejaVuSans-2212"/>
       <use xlink:href="#DejaVuSans-32" x="83.789062"/>
      </g>
     </g>
    </g>
    <g id="xtick_4">
     <g id="line2d_4">
      <g>
       <use xlink:href="#mbee2ac2975" x="339.233531" y="640.8" style="stroke: #000000; stroke-width: 0.8"/>
      </g>
     </g>
     <g id="text_4">
      <!-- −1 -->
      <g transform="translate(331.862438 655.398438) scale(0.1 -0.1)">
       <defs>
        <path id="DejaVuSans-31" d="M 794 531 
L 1825 531 
L 1825 4091 
L 703 3866 
L 703 4441 
L 1819 4666 
L 2450 4666 
L 2450 531 
L 3481 531 
L 3481 0 
L 794 0 
L 794 531 
z
" transform="scale(0.015625)"/>
       </defs>
       <use xlink:href="#DejaVuSans-2212"/>
       <use xlink:href="#DejaVuSans-31" x="83.789062"/>
      </g>
     </g>
    </g>
    <g id="xtick_5">
     <g id="line2d_5">
      <g>
       <use xlink:href="#mbee2ac2975" x="415.110537" y="640.8" style="stroke: #000000; stroke-width: 0.8"/>
      </g>
     </g>
     <g id="text_5">
      <!-- 0 -->
      <g transform="translate(411.929287 655.398438) scale(0.1 -0.1)">
       <defs>
        <path id="DejaVuSans-30" d="M 2034 4250 
Q 1547 4250 1301 3770 
Q 1056 3291 1056 2328 
Q 1056 1369 1301 889 
Q 1547 409 2034 409 
Q 2525 409 2770 889 
Q 3016 1369 3016 2328 
Q 3016 3291 2770 3770 
Q 2525 4250 2034 4250 
z
M 2034 4750 
Q 2819 4750 3233 4129 
Q 3647 3509 3647 2328 
Q 3647 1150 3233 529 
Q 2819 -91 2034 -91 
Q 1250 -91 836 529 
Q 422 1150 422 2328 
Q 422 3509 836 4129 
Q 1250 4750 2034 4750 
z
" transform="scale(0.015625)"/>
       </defs>
       <use xlink:href="#DejaVuSans-30"/>
      </g>
     </g>
    </g>
    <g id="xtick_6">
     <g id="line2d_6">
      <g>
       <use xlink:href="#mbee2ac2975" x="490.987542" y="640.8" style="stroke: #000000; stroke-width: 0.8"/>
      </g>
     </g>
     <g id="text_6">
      <!-- 1 -->
      <g transform="translate(487.806292 655.398438) scale(0.1 -0.1)">
       <use xlink:href="#DejaVuSans-31"/>
      </g>
     </g>
    </g>
    <g id="xtick_7">
     <g id="line2d_7">
      <g>
       <use xlink:href="#mbee2ac2975" x="566.864548" y="640.8" style="stroke: #000000; stroke-width: 0.8"/>
      </g>
     </g>
     <g id="text_7">
      <!-- 2 -->
      <g transform="translate(563.683298 655.398438) scale(0.1 -0.1)">
       <use xlink:href="#DejaVuSans-32"/>
      </g>
     </g>
    </g>
    <g id="xtick_8">
     <g id="line2d_8">
      <g>
       <use xlink:href="#mbee2ac2975" x="642.741553" y="640.8" style="stroke: #000000; stroke-width: 0.8"/>
      </g>
     </g>
     <g id="text_8">
      <!-- 3 -->
      <g transform="translate(639.560303 655.398438) scale(0.1 -0.1)">
       <use xlink:href="#DejaVuSans-33"/>
      </g>
     </g>
    </g>
    <g id="text_9">
     <!-- Dimension 1 -->
     <g transform="translate(337.653125 669.076563) scale(0.1 -0.1)">
      <defs>
       <path id="DejaVuSans-44" d="M 1259 4147 
L 1259 519 
L 2022 519 
Q 2988 519 3436 956 
Q 3884 1394 3884 2338 
Q 3884 3275 3436 3711 
Q 2988 4147 2022 4147 
L 1259 4147 
z
M 628 4666 
L 1925 4666 
Q 3281 4666 3915 4102 
Q 4550 3538 4550 2338 
Q 4550 1131 3912 565 
Q 3275 0 1925 0 
L 628 0 
L 628 4666 
z
" transform="scale(0.015625)"/>
       <path id="DejaVuSans-69" d="M 603 3500 
L 1178 3500 
L 1178 0 
L 603 0 
L 603 3500 
z
M 603 4863 
L 1178 4863 
L 1178 4134 
L 603 4134 
L 603 4863 
z
" transform="scale(0.015625)"/>
       <path id="DejaVuSans-6d" d="M 3328 2828 
Q 3544 3216 3844 3400 
Q 4144 3584 4550 3584 
Q 5097 3584 5394 3201 
Q 5691 2819 5691 2113 
L 5691 0 
L 5113 0 
L 5113 2094 
Q 5113 2597 4934 2840 
Q 4756 3084 4391 3084 
Q 3944 3084 3684 2787 
Q 3425 2491 3425 1978 
L 3425 0 
L 2847 0 
L 2847 2094 
Q 2847 2600 2669 2842 
Q 2491 3084 2119 3084 
Q 1678 3084 1418 2786 
Q 1159 2488 1159 1978 
L 1159 0 
L 581 0 
L 581 3500 
L 1159 3500 
L 1159 2956 
Q 1356 3278 1631 3431 
Q 1906 3584 2284 3584 
Q 2666 3584 2933 3390 
Q 3200 3197 3328 2828 
z
" transform="scale(0.015625)"/>
       <path id="DejaVuSans-65" d="M 3597 1894 
L 3597 1613 
L 953 1613 
Q 991 1019 1311 708 
Q 1631 397 2203 397 
Q 2534 397 2845 478 
Q 3156 559 3463 722 
L 3463 178 
Q 3153 47 2828 -22 
Q 2503 -91 2169 -91 
Q 1331 -91 842 396 
Q 353 884 353 1716 
Q 353 2575 817 3079 
Q 1281 3584 2069 3584 
Q 2775 3584 3186 3129 
Q 3597 2675 3597 1894 
z
M 3022 2063 
Q 3016 2534 2758 2815 
Q 2500 3097 2075 3097 
Q 1594 3097 1305 2825 
Q 1016 2553 972 2059 
L 3022 2063 
z
" transform="scale(0.015625)"/>
       <path id="DejaVuSans-6e" d="M 3513 2113 
L 3513 0 
L 2938 0 
L 2938 2094 
Q 2938 2591 2744 2837 
Q 2550 3084 2163 3084 
Q 1697 3084 1428 2787 
Q 1159 2491 1159 1978 
L 1159 0 
L 581 0 
L 581 3500 
L 1159 3500 
L 1159 2956 
Q 1366 3272 1645 3428 
Q 1925 3584 2291 3584 
Q 2894 3584 3203 3211 
Q 3513 2838 3513 2113 
z
" transform="scale(0.015625)"/>
       <path id="DejaVuSans-73" d="M 2834 3397 
L 2834 2853 
Q 2591 2978 2328 3040 
Q 2066 3103 1784 3103 
Q 1356 3103 1142 2972 
Q 928 2841 928 2578 
Q 928 2378 1081 2264 
Q 1234 2150 1697 2047 
L 1894 2003 
Q 2506 1872 2764 1633 
Q 3022 1394 3022 966 
Q 3022 478 2636 193 
Q 2250 -91 1575 -91 
Q 1294 -91 989 -36 
Q 684 19 347 128 
L 347 722 
Q 666 556 975 473 
Q 1284 391 1588 391 
Q 1994 391 2212 530 
Q 2431 669 2431 922 
Q 2431 1156 2273 1281 
Q 2116 1406 1581 1522 
L 1381 1569 
Q 847 1681 609 1914 
Q 372 2147 372 2553 
Q 372 3047 722 3315 
Q 1072 3584 1716 3584 
Q 2034 3584 2315 3537 
Q 2597 3491 2834 3397 
z
" transform="scale(0.015625)"/>
       <path id="DejaVuSans-6f" d="M 1959 3097 
Q 1497 3097 1228 2736 
Q 959 2375 959 1747 
Q 959 1119 1226 758 
Q 1494 397 1959 397 
Q 2419 397 2687 759 
Q 2956 1122 2956 1747 
Q 2956 2369 2687 2733 
Q 2419 3097 1959 3097 
z
M 1959 3584 
Q 2709 3584 3137 3096 
Q 3566 2609 3566 1747 
Q 3566 888 3137 398 
Q 2709 -91 1959 -91 
Q 1206 -91 779 398 
Q 353 888 353 1747 
Q 353 2609 779 3096 
Q 1206 3584 1959 3584 
z
" transform="scale(0.015625)"/>
       <path id="DejaVuSans-20" transform="scale(0.015625)"/>
      </defs>
      <use xlink:href="#DejaVuSans-44"/>
      <use xlink:href="#DejaVuSans-69" x="77.001953"/>
      <use xlink:href="#DejaVuSans-6d" x="104.785156"/>
      <use xlink:href="#DejaVuSans-65" x="202.197266"/>
      <use xlink:href="#DejaVuSans-6e" x="263.720703"/>
      <use xlink:href="#DejaVuSans-73" x="327.099609"/>
      <use xlink:href="#DejaVuSans-69" x="379.199219"/>
      <use xlink:href="#DejaVuSans-6f" x="406.982422"/>
      <use xlink:href="#DejaVuSans-6e" x="468.164062"/>
      <use xlink:href="#DejaVuSans-20" x="531.542969"/>
      <use xlink:href="#DejaVuSans-31" x="563.330078"/>
     </g>
    </g>
   </g>
   <g id="matplotlib.axis_2">
    <g id="ytick_1">
     <g id="line2d_9">
      <defs>
       <path id="m169a45537c" d="M 0 0 
L -3.5 0 
" style="stroke: #000000; stroke-width: 0.8"/>
      </defs>
      <g>
       <use xlink:href="#m169a45537c" x="90" y="630.928387" style="stroke: #000000; stroke-width: 0.8"/>
      </g>
     </g>
     <g id="text_10">
      <!-- 0.5 -->
      <g transform="translate(67.096875 634.727606) scale(0.1 -0.1)">
       <defs>
        <path id="DejaVuSans-2e" d="M 684 794 
L 1344 794 
L 1344 0 
L 684 0 
L 684 794 
z
" transform="scale(0.015625)"/>
        <path id="DejaVuSans-35" d="M 691 4666 
L 3169 4666 
L 3169 4134 
L 1269 4134 
L 1269 2991 
Q 1406 3038 1543 3061 
Q 1681 3084 1819 3084 
Q 2600 3084 3056 2656 
Q 3513 2228 3513 1497 
Q 3513 744 3044 326 
Q 2575 -91 1722 -91 
Q 1428 -91 1123 -41 
Q 819 9 494 109 
L 494 744 
Q 775 591 1075 516 
Q 1375 441 1709 441 
Q 2250 441 2565 725 
Q 2881 1009 2881 1497 
Q 2881 1984 2565 2268 
Q 2250 2553 1709 2553 
Q 1456 2553 1204 2497 
Q 953 2441 691 2322 
L 691 4666 
z
" transform="scale(0.015625)"/>
       </defs>
       <use xlink:href="#DejaVuSans-30"/>
       <use xlink:href="#DejaVuSans-2e" x="63.623047"/>
       <use xlink:href="#DejaVuSans-35" x="95.410156"/>
      </g>
     </g>
    </g>
    <g id="ytick_2">
     <g id="line2d_10">
      <g>
       <use xlink:href="#m169a45537c" x="90" y="566.309727" style="stroke: #000000; stroke-width: 0.8"/>
      </g>
     </g>
     <g id="text_11">
      <!-- 1.0 -->
      <g transform="translate(67.096875 570.108945) scale(0.1 -0.1)">
       <use xlink:href="#DejaVuSans-31"/>
       <use xlink:href="#DejaVuSans-2e" x="63.623047"/>
       <use xlink:href="#DejaVuSans-30" x="95.410156"/>
      </g>
     </g>
    </g>
    <g id="ytick_3">
     <g id="line2d_11">
      <g>
       <use xlink:href="#m169a45537c" x="90" y="501.691066" style="stroke: #000000; stroke-width: 0.8"/>
      </g>
     </g>
     <g id="text_12">
      <!-- 1.5 -->
      <g transform="translate(67.096875 505.490285) scale(0.1 -0.1)">
       <use xlink:href="#DejaVuSans-31"/>
       <use xlink:href="#DejaVuSans-2e" x="63.623047"/>
       <use xlink:href="#DejaVuSans-35" x="95.410156"/>
      </g>
     </g>
    </g>
    <g id="ytick_4">
     <g id="line2d_12">
      <g>
       <use xlink:href="#m169a45537c" x="90" y="437.072405" style="stroke: #000000; stroke-width: 0.8"/>
      </g>
     </g>
     <g id="text_13">
      <!-- 2.0 -->
      <g transform="translate(67.096875 440.871624) scale(0.1 -0.1)">
       <use xlink:href="#DejaVuSans-32"/>
       <use xlink:href="#DejaVuSans-2e" x="63.623047"/>
       <use xlink:href="#DejaVuSans-30" x="95.410156"/>
      </g>
     </g>
    </g>
    <g id="ytick_5">
     <g id="line2d_13">
      <g>
       <use xlink:href="#m169a45537c" x="90" y="372.453744" style="stroke: #000000; stroke-width: 0.8"/>
      </g>
     </g>
     <g id="text_14">
      <!-- 2.5 -->
      <g transform="translate(67.096875 376.252963) scale(0.1 -0.1)">
       <use xlink:href="#DejaVuSans-32"/>
       <use xlink:href="#DejaVuSans-2e" x="63.623047"/>
       <use xlink:href="#DejaVuSans-35" x="95.410156"/>
      </g>
     </g>
    </g>
    <g id="ytick_6">
     <g id="line2d_14">
      <g>
       <use xlink:href="#m169a45537c" x="90" y="307.835083" style="stroke: #000000; stroke-width: 0.8"/>
      </g>
     </g>
     <g id="text_15">
      <!-- 3.0 -->
      <g transform="translate(67.096875 311.634302) scale(0.1 -0.1)">
       <use xlink:href="#DejaVuSans-33"/>
       <use xlink:href="#DejaVuSans-2e" x="63.623047"/>
       <use xlink:href="#DejaVuSans-30" x="95.410156"/>
      </g>
     </g>
    </g>
    <g id="ytick_7">
     <g id="line2d_15">
      <g>
       <use xlink:href="#m169a45537c" x="90" y="243.216422" style="stroke: #000000; stroke-width: 0.8"/>
      </g>
     </g>
     <g id="text_16">
      <!-- 3.5 -->
      <g transform="translate(67.096875 247.015641) scale(0.1 -0.1)">
       <use xlink:href="#DejaVuSans-33"/>
       <use xlink:href="#DejaVuSans-2e" x="63.623047"/>
       <use xlink:href="#DejaVuSans-35" x="95.410156"/>
      </g>
     </g>
    </g>
    <g id="ytick_8">
     <g id="line2d_16">
      <g>
       <use xlink:href="#m169a45537c" x="90" y="178.597762" style="stroke: #000000; stroke-width: 0.8"/>
      </g>
     </g>
     <g id="text_17">
      <!-- 4.0 -->
      <g transform="translate(67.096875 182.39698) scale(0.1 -0.1)">
       <use xlink:href="#DejaVuSans-34"/>
       <use xlink:href="#DejaVuSans-2e" x="63.623047"/>
       <use xlink:href="#DejaVuSans-30" x="95.410156"/>
      </g>
     </g>
    </g>
    <g id="ytick_9">
     <g id="line2d_17">
      <g>
       <use xlink:href="#m169a45537c" x="90" y="113.979101" style="stroke: #000000; stroke-width: 0.8"/>
      </g>
     </g>
     <g id="text_18">
      <!-- 4.5 -->
      <g transform="translate(67.096875 117.77832) scale(0.1 -0.1)">
       <use xlink:href="#DejaVuSans-34"/>
       <use xlink:href="#DejaVuSans-2e" x="63.623047"/>
       <use xlink:href="#DejaVuSans-35" x="95.410156"/>
      </g>
     </g>
    </g>
    <g id="text_19">
     <!-- Dimension 2 -->
     <g transform="translate(61.017187 394.946875) rotate(-90) scale(0.1 -0.1)">
      <use xlink:href="#DejaVuSans-44"/>
      <use xlink:href="#DejaVuSans-69" x="77.001953"/>
      <use xlink:href="#DejaVuSans-6d" x="104.785156"/>
      <use xlink:href="#DejaVuSans-65" x="202.197266"/>
      <use xlink:href="#DejaVuSans-6e" x="263.720703"/>
      <use xlink:href="#DejaVuSans-73" x="327.099609"/>
      <use xlink:href="#DejaVuSans-69" x="379.199219"/>
      <use xlink:href="#DejaVuSans-6f" x="406.982422"/>
      <use xlink:href="#DejaVuSans-6e" x="468.164062"/>
      <use xlink:href="#DejaVuSans-20" x="531.542969"/>
      <use xlink:href="#DejaVuSans-32" x="563.330078"/>
     </g>
    </g>
   </g>
   <g id="patch_3">
    <path d="M 90 640.8 
L 90 86.4 
" style="fill: none; stroke: #000000; stroke-width: 0.8; stroke-linejoin: miter; stroke-linecap: square"/>
   </g>
   <g id="patch_4">
    <path d="M 648 640.8 
L 648 86.4 
" style="fill: none; stroke: #000000; stroke-width: 0.8; stroke-linejoin: miter; stroke-linecap: square"/>
   </g>
   <g id="patch_5">
    <path d="M 90 640.8 
L 648 640.8 
" style="fill: none; stroke: #000000; stroke-width: 0.8; stroke-linejoin: miter; stroke-linecap: square"/>
   </g>
   <g id="patch_6">
    <path d="M 90 86.4 
L 648 86.4 
" style="fill: none; stroke: #000000; stroke-width: 0.8; stroke-linejoin: miter; stroke-linecap: square"/>
   </g>
   <g id="text_20">
    <!-- BE -->
    <g transform="translate(621.807178 123.982511) scale(0.1 -0.1)">
     <defs>
      <path id="DejaVuSans-42" d="M 1259 2228 
L 1259 519 
L 2272 519 
Q 2781 519 3026 730 
Q 3272 941 3272 1375 
Q 3272 1813 3026 2020 
Q 2781 2228 2272 2228 
L 1259 2228 
z
M 1259 4147 
L 1259 2741 
L 2194 2741 
Q 2656 2741 2882 2914 
Q 3109 3088 3109 3444 
Q 3109 3797 2882 3972 
Q 2656 4147 2194 4147 
L 1259 4147 
z
M 628 4666 
L 2241 4666 
Q 2963 4666 3353 4366 
Q 3744 4066 3744 3513 
Q 3744 3084 3544 2831 
Q 3344 2578 2956 2516 
Q 3422 2416 3680 2098 
Q 3938 1781 3938 1306 
Q 3938 681 3513 340 
Q 3088 0 2303 0 
L 628 0 
L 628 4666 
z
" transform="scale(0.015625)"/>
      <path id="DejaVuSans-45" d="M 628 4666 
L 3578 4666 
L 3578 4134 
L 1259 4134 
L 1259 2753 
L 3481 2753 
L 3481 2222 
L 1259 2222 
L 1259 531 
L 3634 531 
L 3634 0 
L 628 0 
L 628 4666 
z
" transform="scale(0.015625)"/>
     </defs>
     <use xlink:href="#DejaVuSans-42"/>
     <use xlink:href="#DejaVuSans-45" x="68.603516"/>
    </g>
   </g>
   <g id="text_21">
    <!-- identifier -->
    <g transform="translate(575.182236 130.632516) scale(0.1 -0.1)">
     <defs>
      <path id="DejaVuSans-64" d="M 2906 2969 
L 2906 4863 
L 3481 4863 
L 3481 0 
L 2906 0 
L 2906 525 
Q 2725 213 2448 61 
Q 2172 -91 1784 -91 
Q 1150 -91 751 415 
Q 353 922 353 1747 
Q 353 2572 751 3078 
Q 1150 3584 1784 3584 
Q 2172 3584 2448 3432 
Q 2725 3281 2906 2969 
z
M 947 1747 
Q 947 1113 1208 752 
Q 1469 391 1925 391 
Q 2381 391 2643 752 
Q 2906 1113 2906 1747 
Q 2906 2381 2643 2742 
Q 2381 3103 1925 3103 
Q 1469 3103 1208 2742 
Q 947 2381 947 1747 
z
" transform="scale(0.015625)"/>
      <path id="DejaVuSans-74" d="M 1172 4494 
L 1172 3500 
L 2356 3500 
L 2356 3053 
L 1172 3053 
L 1172 1153 
Q 1172 725 1289 603 
Q 1406 481 1766 481 
L 2356 481 
L 2356 0 
L 1766 0 
Q 1100 0 847 248 
Q 594 497 594 1153 
L 594 3053 
L 172 3053 
L 172 3500 
L 594 3500 
L 594 4494 
L 1172 4494 
z
" transform="scale(0.015625)"/>
      <path id="DejaVuSans-66" d="M 2375 4863 
L 2375 4384 
L 1825 4384 
Q 1516 4384 1395 4259 
Q 1275 4134 1275 3809 
L 1275 3500 
L 2222 3500 
L 2222 3053 
L 1275 3053 
L 1275 0 
L 697 0 
L 697 3053 
L 147 3053 
L 147 3500 
L 697 3500 
L 697 3744 
Q 697 4328 969 4595 
Q 1241 4863 1831 4863 
L 2375 4863 
z
" transform="scale(0.015625)"/>
      <path id="DejaVuSans-72" d="M 2631 2963 
Q 2534 3019 2420 3045 
Q 2306 3072 2169 3072 
Q 1681 3072 1420 2755 
Q 1159 2438 1159 1844 
L 1159 0 
L 581 0 
L 581 3500 
L 1159 3500 
L 1159 2956 
Q 1341 3275 1631 3429 
Q 1922 3584 2338 3584 
Q 2397 3584 2469 3576 
Q 2541 3569 2628 3553 
L 2631 2963 
z
" transform="scale(0.015625)"/>
     </defs>
     <use xlink:href="#DejaVuSans-69"/>
     <use xlink:href="#DejaVuSans-64" x="27.783203"/>
     <use xlink:href="#DejaVuSans-65" x="91.259766"/>
     <use xlink:href="#DejaVuSans-6e" x="152.783203"/>
     <use xlink:href="#DejaVuSans-74" x="216.162109"/>
     <use xlink:href="#DejaVuSans-69" x="255.371094"/>
     <use xlink:href="#DejaVuSans-66" x="283.154297"/>
     <use xlink:href="#DejaVuSans-69" x="318.359375"/>
     <use xlink:href="#DejaVuSans-65" x="346.142578"/>
     <use xlink:href="#DejaVuSans-72" x="407.666016"/>
    </g>
   </g>
   <g id="text_22">
    <!-- BUCV10RGLMME -->
    <g transform="translate(171.685532 438.856562) scale(0.1 -0.1)">
     <defs>
      <path id="DejaVuSans-55" d="M 556 4666 
L 1191 4666 
L 1191 1831 
Q 1191 1081 1462 751 
Q 1734 422 2344 422 
Q 2950 422 3222 751 
Q 3494 1081 3494 1831 
L 3494 4666 
L 4128 4666 
L 4128 1753 
Q 4128 841 3676 375 
Q 3225 -91 2344 -91 
Q 1459 -91 1007 375 
Q 556 841 556 1753 
L 556 4666 
z
" transform="scale(0.015625)"/>
      <path id="DejaVuSans-43" d="M 4122 4306 
L 4122 3641 
Q 3803 3938 3442 4084 
Q 3081 4231 2675 4231 
Q 1875 4231 1450 3742 
Q 1025 3253 1025 2328 
Q 1025 1406 1450 917 
Q 1875 428 2675 428 
Q 3081 428 3442 575 
Q 3803 722 4122 1019 
L 4122 359 
Q 3791 134 3420 21 
Q 3050 -91 2638 -91 
Q 1578 -91 968 557 
Q 359 1206 359 2328 
Q 359 3453 968 4101 
Q 1578 4750 2638 4750 
Q 3056 4750 3426 4639 
Q 3797 4528 4122 4306 
z
" transform="scale(0.015625)"/>
      <path id="DejaVuSans-56" d="M 1831 0 
L 50 4666 
L 709 4666 
L 2188 738 
L 3669 4666 
L 4325 4666 
L 2547 0 
L 1831 0 
z
" transform="scale(0.015625)"/>
      <path id="DejaVuSans-52" d="M 2841 2188 
Q 3044 2119 3236 1894 
Q 3428 1669 3622 1275 
L 4263 0 
L 3584 0 
L 2988 1197 
Q 2756 1666 2539 1819 
Q 2322 1972 1947 1972 
L 1259 1972 
L 1259 0 
L 628 0 
L 628 4666 
L 2053 4666 
Q 2853 4666 3247 4331 
Q 3641 3997 3641 3322 
Q 3641 2881 3436 2590 
Q 3231 2300 2841 2188 
z
M 1259 4147 
L 1259 2491 
L 2053 2491 
Q 2509 2491 2742 2702 
Q 2975 2913 2975 3322 
Q 2975 3731 2742 3939 
Q 2509 4147 2053 4147 
L 1259 4147 
z
" transform="scale(0.015625)"/>
      <path id="DejaVuSans-47" d="M 3809 666 
L 3809 1919 
L 2778 1919 
L 2778 2438 
L 4434 2438 
L 4434 434 
Q 4069 175 3628 42 
Q 3188 -91 2688 -91 
Q 1594 -91 976 548 
Q 359 1188 359 2328 
Q 359 3472 976 4111 
Q 1594 4750 2688 4750 
Q 3144 4750 3555 4637 
Q 3966 4525 4313 4306 
L 4313 3634 
Q 3963 3931 3569 4081 
Q 3175 4231 2741 4231 
Q 1884 4231 1454 3753 
Q 1025 3275 1025 2328 
Q 1025 1384 1454 906 
Q 1884 428 2741 428 
Q 3075 428 3337 486 
Q 3600 544 3809 666 
z
" transform="scale(0.015625)"/>
      <path id="DejaVuSans-4c" d="M 628 4666 
L 1259 4666 
L 1259 531 
L 3531 531 
L 3531 0 
L 628 0 
L 628 4666 
z
" transform="scale(0.015625)"/>
      <path id="DejaVuSans-4d" d="M 628 4666 
L 1569 4666 
L 2759 1491 
L 3956 4666 
L 4897 4666 
L 4897 0 
L 4281 0 
L 4281 4097 
L 3078 897 
L 2444 897 
L 1241 4097 
L 1241 0 
L 628 0 
L 628 4666 
z
" transform="scale(0.015625)"/>
     </defs>
     <use xlink:href="#DejaVuSans-42"/>
     <use xlink:href="#DejaVuSans-55" x="68.603516"/>
     <use xlink:href="#DejaVuSans-43" x="141.796875"/>
     <use xlink:href="#DejaVuSans-56" x="211.621094"/>
     <use xlink:href="#DejaVuSans-31" x="280.029297"/>
     <use xlink:href="#DejaVuSans-30" x="343.652344"/>
     <use xlink:href="#DejaVuSans-52" x="407.275391"/>
     <use xlink:href="#DejaVuSans-47" x="476.757812"/>
     <use xlink:href="#DejaVuSans-4c" x="554.248047"/>
     <use xlink:href="#DejaVuSans-4d" x="609.960938"/>
     <use xlink:href="#DejaVuSans-4d" x="696.240234"/>
     <use xlink:href="#DejaVuSans-45" x="782.519531"/>
    </g>
   </g>
   <g id="text_23">
    <!-- bucvglmm -->
    <g transform="translate(117.015765 451.763668) scale(0.1 -0.1)">
     <defs>
      <path id="DejaVuSans-62" d="M 3116 1747 
Q 3116 2381 2855 2742 
Q 2594 3103 2138 3103 
Q 1681 3103 1420 2742 
Q 1159 2381 1159 1747 
Q 1159 1113 1420 752 
Q 1681 391 2138 391 
Q 2594 391 2855 752 
Q 3116 1113 3116 1747 
z
M 1159 2969 
Q 1341 3281 1617 3432 
Q 1894 3584 2278 3584 
Q 2916 3584 3314 3078 
Q 3713 2572 3713 1747 
Q 3713 922 3314 415 
Q 2916 -91 2278 -91 
Q 1894 -91 1617 61 
Q 1341 213 1159 525 
L 1159 0 
L 581 0 
L 581 4863 
L 1159 4863 
L 1159 2969 
z
" transform="scale(0.015625)"/>
      <path id="DejaVuSans-75" d="M 544 1381 
L 544 3500 
L 1119 3500 
L 1119 1403 
Q 1119 906 1312 657 
Q 1506 409 1894 409 
Q 2359 409 2629 706 
Q 2900 1003 2900 1516 
L 2900 3500 
L 3475 3500 
L 3475 0 
L 2900 0 
L 2900 538 
Q 2691 219 2414 64 
Q 2138 -91 1772 -91 
Q 1169 -91 856 284 
Q 544 659 544 1381 
z
M 1991 3584 
L 1991 3584 
z
" transform="scale(0.015625)"/>
      <path id="DejaVuSans-63" d="M 3122 3366 
L 3122 2828 
Q 2878 2963 2633 3030 
Q 2388 3097 2138 3097 
Q 1578 3097 1268 2742 
Q 959 2388 959 1747 
Q 959 1106 1268 751 
Q 1578 397 2138 397 
Q 2388 397 2633 464 
Q 2878 531 3122 666 
L 3122 134 
Q 2881 22 2623 -34 
Q 2366 -91 2075 -91 
Q 1284 -91 818 406 
Q 353 903 353 1747 
Q 353 2603 823 3093 
Q 1294 3584 2113 3584 
Q 2378 3584 2631 3529 
Q 2884 3475 3122 3366 
z
" transform="scale(0.015625)"/>
      <path id="DejaVuSans-76" d="M 191 3500 
L 800 3500 
L 1894 563 
L 2988 3500 
L 3597 3500 
L 2284 0 
L 1503 0 
L 191 3500 
z
" transform="scale(0.015625)"/>
      <path id="DejaVuSans-67" d="M 2906 1791 
Q 2906 2416 2648 2759 
Q 2391 3103 1925 3103 
Q 1463 3103 1205 2759 
Q 947 2416 947 1791 
Q 947 1169 1205 825 
Q 1463 481 1925 481 
Q 2391 481 2648 825 
Q 2906 1169 2906 1791 
z
M 3481 434 
Q 3481 -459 3084 -895 
Q 2688 -1331 1869 -1331 
Q 1566 -1331 1297 -1286 
Q 1028 -1241 775 -1147 
L 775 -588 
Q 1028 -725 1275 -790 
Q 1522 -856 1778 -856 
Q 2344 -856 2625 -561 
Q 2906 -266 2906 331 
L 2906 616 
Q 2728 306 2450 153 
Q 2172 0 1784 0 
Q 1141 0 747 490 
Q 353 981 353 1791 
Q 353 2603 747 3093 
Q 1141 3584 1784 3584 
Q 2172 3584 2450 3431 
Q 2728 3278 2906 2969 
L 2906 3500 
L 3481 3500 
L 3481 434 
z
" transform="scale(0.015625)"/>
      <path id="DejaVuSans-6c" d="M 603 4863 
L 1178 4863 
L 1178 0 
L 603 0 
L 603 4863 
z
" transform="scale(0.015625)"/>
     </defs>
     <use xlink:href="#DejaVuSans-62"/>
     <use xlink:href="#DejaVuSans-75" x="63.476562"/>
     <use xlink:href="#DejaVuSans-63" x="126.855469"/>
     <use xlink:href="#DejaVuSans-76" x="181.835938"/>
     <use xlink:href="#DejaVuSans-67" x="241.015625"/>
     <use xlink:href="#DejaVuSans-6c" x="304.492188"/>
     <use xlink:href="#DejaVuSans-6d" x="332.275391"/>
     <use xlink:href="#DejaVuSans-6d" x="429.6875"/>
    </g>
   </g>
   <g id="text_24">
    <!-- BUCV10TE -->
    <g transform="translate(302.85169 580.214635) scale(0.1 -0.1)">
     <defs>
      <path id="DejaVuSans-54" d="M -19 4666 
L 3928 4666 
L 3928 4134 
L 2272 4134 
L 2272 0 
L 1638 0 
L 1638 4134 
L -19 4134 
L -19 4666 
z
" transform="scale(0.015625)"/>
     </defs>
     <use xlink:href="#DejaVuSans-42"/>
     <use xlink:href="#DejaVuSans-55" x="68.603516"/>
     <use xlink:href="#DejaVuSans-43" x="141.796875"/>
     <use xlink:href="#DejaVuSans-56" x="211.621094"/>
     <use xlink:href="#DejaVuSans-31" x="280.029297"/>
     <use xlink:href="#DejaVuSans-30" x="343.652344"/>
     <use xlink:href="#DejaVuSans-54" x="407.275391"/>
     <use xlink:href="#DejaVuSans-45" x="468.359375"/>
    </g>
   </g>
   <g id="text_25">
    <!-- bucvte -->
    <g transform="translate(352.665732 563.591607) scale(0.1 -0.1)">
     <use xlink:href="#DejaVuSans-62"/>
     <use xlink:href="#DejaVuSans-75" x="63.476562"/>
     <use xlink:href="#DejaVuSans-63" x="126.855469"/>
     <use xlink:href="#DejaVuSans-76" x="181.835938"/>
     <use xlink:href="#DejaVuSans-74" x="241.015625"/>
     <use xlink:href="#DejaVuSans-65" x="280.224609"/>
    </g>
   </g>
   <g id="text_26">
    <!-- BUCV2RGLMME -->
    <g transform="translate(259.984149 450.952562) scale(0.1 -0.1)">
     <use xlink:href="#DejaVuSans-42"/>
     <use xlink:href="#DejaVuSans-55" x="68.603516"/>
     <use xlink:href="#DejaVuSans-43" x="141.796875"/>
     <use xlink:href="#DejaVuSans-56" x="211.621094"/>
     <use xlink:href="#DejaVuSans-32" x="280.029297"/>
     <use xlink:href="#DejaVuSans-52" x="343.652344"/>
     <use xlink:href="#DejaVuSans-47" x="413.134766"/>
     <use xlink:href="#DejaVuSans-4c" x="490.625"/>
     <use xlink:href="#DejaVuSans-4d" x="546.337891"/>
     <use xlink:href="#DejaVuSans-4d" x="632.617188"/>
     <use xlink:href="#DejaVuSans-45" x="718.896484"/>
    </g>
   </g>
   <g id="text_27">
    <!-- BUCV2TE -->
    <g transform="translate(342.566935 538.1564) scale(0.1 -0.1)">
     <use xlink:href="#DejaVuSans-42"/>
     <use xlink:href="#DejaVuSans-55" x="68.603516"/>
     <use xlink:href="#DejaVuSans-43" x="141.796875"/>
     <use xlink:href="#DejaVuSans-56" x="211.621094"/>
     <use xlink:href="#DejaVuSans-32" x="280.029297"/>
     <use xlink:href="#DejaVuSans-54" x="343.652344"/>
     <use xlink:href="#DejaVuSans-45" x="404.736328"/>
    </g>
   </g>
   <g id="text_28">
    <!-- BUCV5RGLMME -->
    <g transform="translate(90.006526 426.760562) scale(0.1 -0.1)">
     <use xlink:href="#DejaVuSans-42"/>
     <use xlink:href="#DejaVuSans-55" x="68.603516"/>
     <use xlink:href="#DejaVuSans-43" x="141.796875"/>
     <use xlink:href="#DejaVuSans-56" x="211.621094"/>
     <use xlink:href="#DejaVuSans-35" x="280.029297"/>
     <use xlink:href="#DejaVuSans-52" x="343.652344"/>
     <use xlink:href="#DejaVuSans-47" x="413.134766"/>
     <use xlink:href="#DejaVuSans-4c" x="490.625"/>
     <use xlink:href="#DejaVuSans-4d" x="546.337891"/>
     <use xlink:href="#DejaVuSans-4d" x="632.617188"/>
     <use xlink:href="#DejaVuSans-45" x="718.896484"/>
    </g>
   </g>
   <g id="text_29">
    <!-- BUCV5TE -->
    <g transform="translate(412.288208 590.398519) scale(0.1 -0.1)">
     <use xlink:href="#DejaVuSans-42"/>
     <use xlink:href="#DejaVuSans-55" x="68.603516"/>
     <use xlink:href="#DejaVuSans-43" x="141.796875"/>
     <use xlink:href="#DejaVuSans-56" x="211.621094"/>
     <use xlink:href="#DejaVuSans-35" x="280.029297"/>
     <use xlink:href="#DejaVuSans-54" x="343.652344"/>
     <use xlink:href="#DejaVuSans-45" x="404.736328"/>
    </g>
   </g>
   <g id="text_30">
    <!-- CBE -->
    <g transform="translate(401.040317 621.824318) scale(0.1 -0.1)">
     <use xlink:href="#DejaVuSans-43"/>
     <use xlink:href="#DejaVuSans-42" x="69.824219"/>
     <use xlink:href="#DejaVuSans-45" x="138.427734"/>
    </g>
   </g>
   <g id="text_31">
    <!-- supervised -->
    <g transform="translate(249.935903 638.287387) scale(0.1 -0.1)">
     <defs>
      <path id="DejaVuSans-70" d="M 1159 525 
L 1159 -1331 
L 581 -1331 
L 581 3500 
L 1159 3500 
L 1159 2969 
Q 1341 3281 1617 3432 
Q 1894 3584 2278 3584 
Q 2916 3584 3314 3078 
Q 3713 2572 3713 1747 
Q 3713 922 3314 415 
Q 2916 -91 2278 -91 
Q 1894 -91 1617 61 
Q 1341 213 1159 525 
z
M 3116 1747 
Q 3116 2381 2855 2742 
Q 2594 3103 2138 3103 
Q 1681 3103 1420 2742 
Q 1159 2381 1159 1747 
Q 1159 1113 1420 752 
Q 1681 391 2138 391 
Q 2594 391 2855 752 
Q 3116 1113 3116 1747 
z
" transform="scale(0.015625)"/>
     </defs>
     <use xlink:href="#DejaVuSans-73"/>
     <use xlink:href="#DejaVuSans-75" x="52.099609"/>
     <use xlink:href="#DejaVuSans-70" x="115.478516"/>
     <use xlink:href="#DejaVuSans-65" x="178.955078"/>
     <use xlink:href="#DejaVuSans-72" x="240.478516"/>
     <use xlink:href="#DejaVuSans-76" x="281.591797"/>
     <use xlink:href="#DejaVuSans-69" x="340.771484"/>
     <use xlink:href="#DejaVuSans-73" x="368.554688"/>
     <use xlink:href="#DejaVuSans-65" x="420.654297"/>
     <use xlink:href="#DejaVuSans-64" x="482.177734"/>
    </g>
   </g>
   <g id="text_32">
    <!-- CE -->
    <g transform="translate(539.575142 324.484073) scale(0.1 -0.1)">
     <use xlink:href="#DejaVuSans-43"/>
     <use xlink:href="#DejaVuSans-45" x="69.824219"/>
    </g>
   </g>
   <g id="text_33">
    <!-- unsupervised -->
    <g transform="translate(466.477408 357.711334) scale(0.1 -0.1)">
     <use xlink:href="#DejaVuSans-75"/>
     <use xlink:href="#DejaVuSans-6e" x="63.378906"/>
     <use xlink:href="#DejaVuSans-73" x="126.757812"/>
     <use xlink:href="#DejaVuSans-75" x="178.857422"/>
     <use xlink:href="#DejaVuSans-70" x="242.236328"/>
     <use xlink:href="#DejaVuSans-65" x="305.712891"/>
     <use xlink:href="#DejaVuSans-72" x="367.236328"/>
     <use xlink:href="#DejaVuSans-76" x="408.349609"/>
     <use xlink:href="#DejaVuSans-69" x="467.529297"/>
     <use xlink:href="#DejaVuSans-73" x="495.3125"/>
     <use xlink:href="#DejaVuSans-65" x="547.412109"/>
     <use xlink:href="#DejaVuSans-64" x="608.935547"/>
    </g>
   </g>
   <g id="text_34">
    <!-- CV10RGLMME -->
    <g transform="translate(164.440402 466.587708) scale(0.1 -0.1)">
     <use xlink:href="#DejaVuSans-43"/>
     <use xlink:href="#DejaVuSans-56" x="69.824219"/>
     <use xlink:href="#DejaVuSans-31" x="138.232422"/>
     <use xlink:href="#DejaVuSans-30" x="201.855469"/>
     <use xlink:href="#DejaVuSans-52" x="265.478516"/>
     <use xlink:href="#DejaVuSans-47" x="334.960938"/>
     <use xlink:href="#DejaVuSans-4c" x="412.451172"/>
     <use xlink:href="#DejaVuSans-4d" x="468.164062"/>
     <use xlink:href="#DejaVuSans-4d" x="554.443359"/>
     <use xlink:href="#DejaVuSans-45" x="640.722656"/>
    </g>
   </g>
   <g id="text_35">
    <!-- cvglmm -->
    <g transform="translate(159.665155 491.265188) scale(0.1 -0.1)">
     <use xlink:href="#DejaVuSans-63"/>
     <use xlink:href="#DejaVuSans-76" x="54.980469"/>
     <use xlink:href="#DejaVuSans-67" x="114.160156"/>
     <use xlink:href="#DejaVuSans-6c" x="177.636719"/>
     <use xlink:href="#DejaVuSans-6d" x="205.419922"/>
     <use xlink:href="#DejaVuSans-6d" x="302.832031"/>
    </g>
   </g>
   <g id="text_36">
    <!-- CV10TE -->
    <g transform="translate(458.133978 565.014759) scale(0.1 -0.1)">
     <use xlink:href="#DejaVuSans-43"/>
     <use xlink:href="#DejaVuSans-56" x="69.824219"/>
     <use xlink:href="#DejaVuSans-31" x="138.232422"/>
     <use xlink:href="#DejaVuSans-30" x="201.855469"/>
     <use xlink:href="#DejaVuSans-54" x="265.478516"/>
     <use xlink:href="#DejaVuSans-45" x="326.5625"/>
    </g>
   </g>
   <g id="text_37">
    <!-- cvte -->
    <g transform="translate(391.086248 550.2524) scale(0.1 -0.1)">
     <use xlink:href="#DejaVuSans-63"/>
     <use xlink:href="#DejaVuSans-76" x="54.980469"/>
     <use xlink:href="#DejaVuSans-74" x="114.160156"/>
     <use xlink:href="#DejaVuSans-65" x="153.369141"/>
    </g>
   </g>
   <g id="text_38">
    <!-- CV2RGLMME -->
    <g transform="translate(93.054376 479.169188) scale(0.1 -0.1)">
     <use xlink:href="#DejaVuSans-43"/>
     <use xlink:href="#DejaVuSans-56" x="69.824219"/>
     <use xlink:href="#DejaVuSans-32" x="138.232422"/>
     <use xlink:href="#DejaVuSans-52" x="201.855469"/>
     <use xlink:href="#DejaVuSans-47" x="271.337891"/>
     <use xlink:href="#DejaVuSans-4c" x="348.828125"/>
     <use xlink:href="#DejaVuSans-4d" x="404.541016"/>
     <use xlink:href="#DejaVuSans-4d" x="490.820312"/>
     <use xlink:href="#DejaVuSans-45" x="577.099609"/>
    </g>
   </g>
   <g id="text_39">
    <!-- CV2TE -->
    <g transform="translate(423.765664 576.708884) scale(0.1 -0.1)">
     <use xlink:href="#DejaVuSans-43"/>
     <use xlink:href="#DejaVuSans-56" x="69.824219"/>
     <use xlink:href="#DejaVuSans-32" x="138.232422"/>
     <use xlink:href="#DejaVuSans-54" x="201.855469"/>
     <use xlink:href="#DejaVuSans-45" x="262.939453"/>
    </g>
   </g>
   <g id="text_40">
    <!-- CV5RGLMME -->
    <g transform="translate(108.228535 453.875804) scale(0.1 -0.1)">
     <use xlink:href="#DejaVuSans-43"/>
     <use xlink:href="#DejaVuSans-56" x="69.824219"/>
     <use xlink:href="#DejaVuSans-35" x="138.232422"/>
     <use xlink:href="#DejaVuSans-52" x="201.855469"/>
     <use xlink:href="#DejaVuSans-47" x="271.337891"/>
     <use xlink:href="#DejaVuSans-4c" x="348.828125"/>
     <use xlink:href="#DejaVuSans-4d" x="404.541016"/>
     <use xlink:href="#DejaVuSans-4d" x="490.820312"/>
     <use xlink:href="#DejaVuSans-45" x="577.099609"/>
    </g>
   </g>
   <g id="text_41">
    <!-- CV5TE -->
    <g transform="translate(429.995178 544.724264) scale(0.1 -0.1)">
     <use xlink:href="#DejaVuSans-43"/>
     <use xlink:href="#DejaVuSans-56" x="69.824219"/>
     <use xlink:href="#DejaVuSans-35" x="138.232422"/>
     <use xlink:href="#DejaVuSans-54" x="201.855469"/>
     <use xlink:href="#DejaVuSans-45" x="262.939453"/>
    </g>
   </g>
   <g id="text_42">
    <!-- DE -->
    <g transform="translate(524.872392 336.580073) scale(0.1 -0.1)">
     <use xlink:href="#DejaVuSans-44"/>
     <use xlink:href="#DejaVuSans-45" x="77.001953"/>
    </g>
   </g>
   <g id="text_43">
    <!-- DTEM10 -->
    <g transform="translate(259.618252 617.232519) scale(0.1 -0.1)">
     <use xlink:href="#DejaVuSans-44"/>
     <use xlink:href="#DejaVuSans-54" x="77.001953"/>
     <use xlink:href="#DejaVuSans-45" x="138.085938"/>
     <use xlink:href="#DejaVuSans-4d" x="201.269531"/>
     <use xlink:href="#DejaVuSans-31" x="287.548828"/>
     <use xlink:href="#DejaVuSans-30" x="351.171875"/>
    </g>
   </g>
   <g id="text_44">
    <!-- dte -->
    <g transform="translate(381.038453 626.228333) scale(0.1 -0.1)">
     <use xlink:href="#DejaVuSans-64"/>
     <use xlink:href="#DejaVuSans-74" x="63.476562"/>
     <use xlink:href="#DejaVuSans-65" x="102.685547"/>
    </g>
   </g>
   <g id="text_45">
    <!-- DTEM2 -->
    <g transform="translate(398.902821 598.989255) scale(0.1 -0.1)">
     <use xlink:href="#DejaVuSans-44"/>
     <use xlink:href="#DejaVuSans-54" x="77.001953"/>
     <use xlink:href="#DejaVuSans-45" x="138.085938"/>
     <use xlink:href="#DejaVuSans-4d" x="201.269531"/>
     <use xlink:href="#DejaVuSans-32" x="287.548828"/>
    </g>
   </g>
   <g id="text_46">
    <!-- DTEM5 -->
    <g transform="translate(349.308453 593.442421) scale(0.1 -0.1)">
     <use xlink:href="#DejaVuSans-44"/>
     <use xlink:href="#DejaVuSans-54" x="77.001953"/>
     <use xlink:href="#DejaVuSans-45" x="138.085938"/>
     <use xlink:href="#DejaVuSans-4d" x="201.269531"/>
     <use xlink:href="#DejaVuSans-35" x="287.548828"/>
    </g>
   </g>
   <g id="text_47">
    <!-- ME01E -->
    <g transform="translate(306.21796 628.553892) scale(0.1 -0.1)">
     <use xlink:href="#DejaVuSans-4d"/>
     <use xlink:href="#DejaVuSans-45" x="86.279297"/>
     <use xlink:href="#DejaVuSans-30" x="149.462891"/>
     <use xlink:href="#DejaVuSans-31" x="213.085938"/>
     <use xlink:href="#DejaVuSans-45" x="276.708984"/>
    </g>
   </g>
   <g id="text_48">
    <!-- mee -->
    <g transform="translate(373.480772 580.582356) scale(0.1 -0.1)">
     <use xlink:href="#DejaVuSans-6d"/>
     <use xlink:href="#DejaVuSans-65" x="97.412109"/>
     <use xlink:href="#DejaVuSans-65" x="158.935547"/>
    </g>
   </g>
   <g id="text_49">
    <!-- ME10E -->
    <g transform="translate(458.7905 604.741157) scale(0.1 -0.1)">
     <use xlink:href="#DejaVuSans-4d"/>
     <use xlink:href="#DejaVuSans-45" x="86.279297"/>
     <use xlink:href="#DejaVuSans-31" x="149.462891"/>
     <use xlink:href="#DejaVuSans-30" x="213.085938"/>
     <use xlink:href="#DejaVuSans-45" x="276.708984"/>
    </g>
   </g>
   <g id="text_50">
    <!-- ME1E -->
    <g transform="translate(379.907292 609.278049) scale(0.1 -0.1)">
     <use xlink:href="#DejaVuSans-4d"/>
     <use xlink:href="#DejaVuSans-45" x="86.279297"/>
     <use xlink:href="#DejaVuSans-31" x="149.462891"/>
     <use xlink:href="#DejaVuSans-45" x="213.085938"/>
    </g>
   </g>
   <g id="text_51">
    <!-- MHE -->
    <g transform="translate(549.806697 336.936897) scale(0.1 -0.1)">
     <defs>
      <path id="DejaVuSans-48" d="M 628 4666 
L 1259 4666 
L 1259 2753 
L 3553 2753 
L 3553 4666 
L 4184 4666 
L 4184 0 
L 3553 0 
L 3553 2222 
L 1259 2222 
L 1259 0 
L 628 0 
L 628 4666 
z
" transform="scale(0.015625)"/>
     </defs>
     <use xlink:href="#DejaVuSans-4d"/>
     <use xlink:href="#DejaVuSans-48" x="86.279297"/>
     <use xlink:href="#DejaVuSans-45" x="161.474609"/>
    </g>
   </g>
   <g id="text_52">
    <!-- OE -->
    <g transform="translate(607.524583 111.814952) scale(0.1 -0.1)">
     <defs>
      <path id="DejaVuSans-4f" d="M 2522 4238 
Q 1834 4238 1429 3725 
Q 1025 3213 1025 2328 
Q 1025 1447 1429 934 
Q 1834 422 2522 422 
Q 3209 422 3611 934 
Q 4013 1447 4013 2328 
Q 4013 3213 3611 3725 
Q 3209 4238 2522 4238 
z
M 2522 4750 
Q 3503 4750 4090 4092 
Q 4678 3434 4678 2328 
Q 4678 1225 4090 567 
Q 3503 -91 2522 -91 
Q 1538 -91 948 565 
Q 359 1222 359 2328 
Q 359 3434 948 4092 
Q 1538 4750 2522 4750 
z
" transform="scale(0.015625)"/>
     </defs>
     <use xlink:href="#DejaVuSans-4f"/>
     <use xlink:href="#DejaVuSans-45" x="78.710938"/>
    </g>
   </g>
   <g id="text_53">
    <!-- OHE -->
    <g transform="translate(622.791581 105.453751) scale(0.1 -0.1)">
     <use xlink:href="#DejaVuSans-4f"/>
     <use xlink:href="#DejaVuSans-48" x="78.710938"/>
     <use xlink:href="#DejaVuSans-45" x="153.90625"/>
    </g>
   </g>
   <g id="text_54">
    <!-- PBTE0001 -->
    <g transform="translate(256.993542 593.215722) scale(0.1 -0.1)">
     <defs>
      <path id="DejaVuSans-50" d="M 1259 4147 
L 1259 2394 
L 2053 2394 
Q 2494 2394 2734 2622 
Q 2975 2850 2975 3272 
Q 2975 3691 2734 3919 
Q 2494 4147 2053 4147 
L 1259 4147 
z
M 628 4666 
L 2053 4666 
Q 2838 4666 3239 4311 
Q 3641 3956 3641 3272 
Q 3641 2581 3239 2228 
Q 2838 1875 2053 1875 
L 1259 1875 
L 1259 0 
L 628 0 
L 628 4666 
z
" transform="scale(0.015625)"/>
     </defs>
     <use xlink:href="#DejaVuSans-50"/>
     <use xlink:href="#DejaVuSans-42" x="60.302734"/>
     <use xlink:href="#DejaVuSans-54" x="128.90625"/>
     <use xlink:href="#DejaVuSans-45" x="189.990234"/>
     <use xlink:href="#DejaVuSans-30" x="253.173828"/>
     <use xlink:href="#DejaVuSans-30" x="316.796875"/>
     <use xlink:href="#DejaVuSans-30" x="380.419922"/>
     <use xlink:href="#DejaVuSans-31" x="444.042969"/>
    </g>
   </g>
   <g id="text_55">
    <!-- pbte -->
    <g transform="translate(396.150067 568.695504) scale(0.1 -0.1)">
     <use xlink:href="#DejaVuSans-70"/>
     <use xlink:href="#DejaVuSans-62" x="63.476562"/>
     <use xlink:href="#DejaVuSans-74" x="126.953125"/>
     <use xlink:href="#DejaVuSans-65" x="166.162109"/>
    </g>
   </g>
   <g id="text_56">
    <!-- PBTE001 -->
    <g transform="translate(303.072009 605.538407) scale(0.1 -0.1)">
     <use xlink:href="#DejaVuSans-50"/>
     <use xlink:href="#DejaVuSans-42" x="60.302734"/>
     <use xlink:href="#DejaVuSans-54" x="128.90625"/>
     <use xlink:href="#DejaVuSans-45" x="189.990234"/>
     <use xlink:href="#DejaVuSans-30" x="253.173828"/>
     <use xlink:href="#DejaVuSans-30" x="316.796875"/>
     <use xlink:href="#DejaVuSans-31" x="380.419922"/>
    </g>
   </g>
   <g id="text_57">
    <!-- PBTE01 -->
    <g transform="translate(341.086943 618.818032) scale(0.1 -0.1)">
     <use xlink:href="#DejaVuSans-50"/>
     <use xlink:href="#DejaVuSans-42" x="60.302734"/>
     <use xlink:href="#DejaVuSans-54" x="128.90625"/>
     <use xlink:href="#DejaVuSans-45" x="189.990234"/>
     <use xlink:href="#DejaVuSans-30" x="253.173828"/>
     <use xlink:href="#DejaVuSans-31" x="316.796875"/>
    </g>
   </g>
   <g id="text_58">
    <!-- RGLMME -->
    <g transform="translate(174.280083 528.728035) scale(0.1 -0.1)">
     <use xlink:href="#DejaVuSans-52"/>
     <use xlink:href="#DejaVuSans-47" x="69.482422"/>
     <use xlink:href="#DejaVuSans-4c" x="146.972656"/>
     <use xlink:href="#DejaVuSans-4d" x="202.685547"/>
     <use xlink:href="#DejaVuSans-4d" x="288.964844"/>
     <use xlink:href="#DejaVuSans-45" x="375.244141"/>
    </g>
   </g>
   <g id="text_59">
    <!-- glmm -->
    <g transform="translate(227.390903 531.920434) scale(0.1 -0.1)">
     <use xlink:href="#DejaVuSans-67"/>
     <use xlink:href="#DejaVuSans-6c" x="63.476562"/>
     <use xlink:href="#DejaVuSans-6d" x="91.259766"/>
     <use xlink:href="#DejaVuSans-6d" x="188.671875"/>
    </g>
   </g>
   <g id="text_60">
    <!-- SE -->
    <g transform="translate(536.331447 348.831959) scale(0.1 -0.1)">
     <defs>
      <path id="DejaVuSans-53" d="M 3425 4513 
L 3425 3897 
Q 3066 4069 2747 4153 
Q 2428 4238 2131 4238 
Q 1616 4238 1336 4038 
Q 1056 3838 1056 3469 
Q 1056 3159 1242 3001 
Q 1428 2844 1947 2747 
L 2328 2669 
Q 3034 2534 3370 2195 
Q 3706 1856 3706 1288 
Q 3706 609 3251 259 
Q 2797 -91 1919 -91 
Q 1588 -91 1214 -16 
Q 841 59 441 206 
L 441 856 
Q 825 641 1194 531 
Q 1563 422 1919 422 
Q 2459 422 2753 634 
Q 3047 847 3047 1241 
Q 3047 1584 2836 1778 
Q 2625 1972 2144 2069 
L 1759 2144 
Q 1053 2284 737 2584 
Q 422 2884 422 3419 
Q 422 4038 858 4394 
Q 1294 4750 2059 4750 
Q 2388 4750 2728 4690 
Q 3069 4631 3425 4513 
z
" transform="scale(0.015625)"/>
     </defs>
     <use xlink:href="#DejaVuSans-53"/>
     <use xlink:href="#DejaVuSans-45" x="63.476562"/>
    </g>
   </g>
   <g id="text_61">
    <!-- TE -->
    <g transform="translate(400.087104 583.580548) scale(0.1 -0.1)">
     <use xlink:href="#DejaVuSans-54"/>
     <use xlink:href="#DejaVuSans-45" x="61.083984"/>
    </g>
   </g>
   <g id="text_62">
    <!-- te -->
    <g transform="translate(419.261852 556.812053) scale(0.1 -0.1)">
     <use xlink:href="#DejaVuSans-74"/>
     <use xlink:href="#DejaVuSans-65" x="39.208984"/>
    </g>
   </g>
   <g id="text_63">
    <!-- WOEE -->
    <g transform="translate(398.629352 638.31841) scale(0.1 -0.1)">
     <defs>
      <path id="DejaVuSans-57" d="M 213 4666 
L 850 4666 
L 1831 722 
L 2809 4666 
L 3519 4666 
L 4500 722 
L 5478 4666 
L 6119 4666 
L 4947 0 
L 4153 0 
L 3169 4050 
L 2175 0 
L 1381 0 
L 213 4666 
z
" transform="scale(0.015625)"/>
     </defs>
     <use xlink:href="#DejaVuSans-57"/>
     <use xlink:href="#DejaVuSans-4f" x="98.876953"/>
     <use xlink:href="#DejaVuSans-45" x="177.587891"/>
     <use xlink:href="#DejaVuSans-45" x="240.771484"/>
    </g>
   </g>
   <g id="text_64">
    <!-- encoder -->
    <g transform="translate(464.282775 515.844973) scale(0.1 -0.1)">
     <use xlink:href="#DejaVuSans-65"/>
     <use xlink:href="#DejaVuSans-6e" x="61.523438"/>
     <use xlink:href="#DejaVuSans-63" x="124.902344"/>
     <use xlink:href="#DejaVuSans-6f" x="179.882812"/>
     <use xlink:href="#DejaVuSans-64" x="241.064453"/>
     <use xlink:href="#DejaVuSans-65" x="304.541016"/>
     <use xlink:href="#DejaVuSans-72" x="366.064453"/>
    </g>
   </g>
   <g id="patch_7">
    <path d="M 621.807545 117.726632 
Q 621.486911 117.547404 621.166276 117.368176 
" style="fill: none; stroke: #ffa500; stroke-width: 0.5; stroke-linecap: round"/>
   </g>
   <g id="patch_8">
    <path d="M 611.291936 122.251577 
Q 614.960101 120.696191 618.628265 119.140805 
" style="fill: none; stroke: #ffa500; stroke-width: 0.5; stroke-linecap: round"/>
   </g>
   <g id="patch_9">
    <path d="M 187.460227 441.338459 
Q 152.985758 448.411602 118.511288 455.484745 
" style="fill: none; stroke: #ffa500; stroke-width: 0.5; stroke-linecap: round"/>
   </g>
   <g id="patch_10">
    <path d="M 131.287127 454.720485 
Q 127.383898 456.629453 123.480669 458.538421 
" style="fill: none; stroke: #ffa500; stroke-width: 0.5; stroke-linecap: round"/>
   </g>
   <g id="patch_11">
    <path d="M 358.004453 577.559605 
Q 384.464852 577.470217 410.925251 577.38083 
" style="fill: none; stroke: #ffa500; stroke-width: 0.5; stroke-linecap: round"/>
   </g>
   <g id="patch_12">
    <path d="M 384.02559 566.397615 
Q 396.999885 571.452955 409.97418 576.508295 
" style="fill: none; stroke: #ffa500; stroke-width: 0.5; stroke-linecap: round"/>
   </g>
   <g id="patch_13">
    <path d="M 257.98482 449.827611 
Q 187.673116 452.967119 117.361412 456.106628 
" style="fill: none; stroke: #ffa500; stroke-width: 0.5; stroke-linecap: round"/>
   </g>
   <g id="patch_14">
    <path d="M 373.978432 541.467119 
Q 393.43606 556.68282 412.893689 571.898521 
" style="fill: none; stroke: #ffa500; stroke-width: 0.5; stroke-linecap: round"/>
   </g>
   <g id="patch_15">
    <path d="M 126.03536 430.664601 
Q 121.256365 441.328752 116.477369 451.992903 
" style="fill: none; stroke: #ffa500; stroke-width: 0.5; stroke-linecap: round"/>
   </g>
   <g id="patch_16">
    <path d="M 424.678427 581.840798 
Q 420.50218 579.565141 416.325932 577.289483 
" style="fill: none; stroke: #ffa500; stroke-width: 0.5; stroke-linecap: round"/>
   </g>
   <g id="patch_17">
    <path d="M 399.115356 615.478039 
Q 396.096178 614.629668 393.077 613.781297 
" style="fill: none; stroke: #ffa500; stroke-width: 0.5; stroke-linecap: round"/>
   </g>
   <g id="patch_18">
    <path d="M 305.203403 630.308064 
Q 346.202849 622.349217 387.202295 614.390369 
" style="fill: none; stroke: #ffa500; stroke-width: 0.5; stroke-linecap: round"/>
   </g>
   <g id="patch_19">
    <path d="M 543.131857 328.389072 
Q 542.69828 329.348263 542.264703 330.307455 
" style="fill: none; stroke: #ffa500; stroke-width: 0.5; stroke-linecap: round"/>
   </g>
   <g id="patch_20">
    <path d="M 531.503689 349.773616 
Q 532.463425 349.608722 533.423161 349.443828 
" style="fill: none; stroke: #ffa500; stroke-width: 0.5; stroke-linecap: round"/>
   </g>
   <g id="patch_21">
    <path d="M 162.440659 464.090374 
Q 144.594526 464.312542 126.748393 464.534711 
" style="fill: none; stroke: #ffa500; stroke-width: 0.5; stroke-linecap: round"/>
   </g>
   <g id="patch_22">
    <path d="M 165.397966 482.91665 
Q 151.07591 477.114449 136.753854 471.312249 
" style="fill: none; stroke: #ffa500; stroke-width: 0.5; stroke-linecap: round"/>
   </g>
   <g id="patch_23">
    <path d="M 456.172076 566.186988 
Q 436.810611 569.917692 417.449146 573.648397 
" style="fill: none; stroke: #ffa500; stroke-width: 0.5; stroke-linecap: round"/>
   </g>
   <g id="patch_24">
    <path d="M 404.581029 554.190833 
Q 408.473585 563.923432 412.366142 573.656031 
" style="fill: none; stroke: #ffa500; stroke-width: 0.5; stroke-linecap: round"/>
   </g>
   <g id="patch_25">
    <path d="M 125.069219 469.573928 
Q 125.069219 468.780984 125.069219 467.988041 
" style="fill: none; stroke: #ffa500; stroke-width: 0.5; stroke-linecap: round"/>
   </g>
   <g id="patch_26">
    <path d="M 421.768284 574.639449 
Q 419.268516 574.706293 416.768748 574.773136 
" style="fill: none; stroke: #ffa500; stroke-width: 0.5; stroke-linecap: round"/>
   </g>
   <g id="patch_27">
    <path d="M 129.51283 456.935497 
Q 126.476744 458.641944 123.440658 460.348392 
" style="fill: none; stroke: #ffa500; stroke-width: 0.5; stroke-linecap: round"/>
   </g>
   <g id="patch_28">
    <path d="M 439.902833 548.224717 
Q 428.04107 560.232228 416.179307 572.239739 
" style="fill: none; stroke: #ffa500; stroke-width: 0.5; stroke-linecap: round"/>
   </g>
   <g id="patch_29">
    <path d="M 538.88756 336.560286 
Q 539.510928 336.821535 540.134296 337.082783 
" style="fill: none; stroke: #ffa500; stroke-width: 0.5; stroke-linecap: round"/>
   </g>
   <g id="patch_30">
    <path d="M 303.071103 611.031999 
Q 339.82345 605.140014 376.575797 599.24803 
" style="fill: none; stroke: #ffa500; stroke-width: 0.5; stroke-linecap: round"/>
   </g>
   <g id="patch_31">
    <path d="M 386.588564 616.765445 
Q 383.837931 609.562822 381.087298 602.360199 
" style="fill: none; stroke: #ffa500; stroke-width: 0.5; stroke-linecap: round"/>
   </g>
   <g id="patch_32">
    <path d="M 396.924935 598.852053 
Q 390.774667 599.614616 384.6244 600.377179 
" style="fill: none; stroke: #ffa500; stroke-width: 0.5; stroke-linecap: round"/>
   </g>
   <g id="patch_33">
    <path d="M 376.255957 596.614713 
Q 376.854089 597.005756 377.452222 597.396799 
" style="fill: none; stroke: #ffa500; stroke-width: 0.5; stroke-linecap: round"/>
   </g>
   <g id="patch_34">
    <path d="M 336.485803 620.151616 
Q 358.468967 610.494578 380.452131 600.837539 
" style="fill: none; stroke: #ffa500; stroke-width: 0.5; stroke-linecap: round"/>
   </g>
   <g id="patch_35">
    <path d="M 383.735381 584.652044 
Q 383.017981 591.207148 382.300581 597.762251 
" style="fill: none; stroke: #ffa500; stroke-width: 0.5; stroke-linecap: round"/>
   </g>
   <g id="patch_36">
    <path d="M 456.796474 601.188678 
Q 422.725631 599.763409 388.654788 598.33814 
" style="fill: none; stroke: #ffa500; stroke-width: 0.5; stroke-linecap: round"/>
   </g>
   <g id="patch_37">
    <path d="M 387.710827 600.234974 
Q 386.98368 599.474898 386.256533 598.714821 
" style="fill: none; stroke: #ffa500; stroke-width: 0.5; stroke-linecap: round"/>
   </g>
   <g id="patch_38">
    <path d="M 547.804472 334.577023 
Q 545.914817 334.634182 544.025162 334.691342 
" style="fill: none; stroke: #ffa500; stroke-width: 0.5; stroke-linecap: round"/>
   </g>
   <g id="patch_39">
    <path d="M 621.686098 113.895916 
Q 621.895391 114.045876 622.104684 114.195836 
" style="fill: none; stroke: #ffa500; stroke-width: 0.5; stroke-linecap: round"/>
   </g>
   <g id="patch_40">
    <path d="M 625.992357 108.810319 
Q 625.082896 109.566312 624.173435 110.322304 
" style="fill: none; stroke: #ffa500; stroke-width: 0.5; stroke-linecap: round"/>
   </g>
   <g id="patch_41">
    <path d="M 309.7484 592.455813 
Q 343.911793 595.207128 378.075186 597.958443 
" style="fill: none; stroke: #ffa500; stroke-width: 0.5; stroke-linecap: round"/>
   </g>
   <g id="patch_42">
    <path d="M 402.663888 572.366571 
Q 393.807584 583.950761 384.95128 595.53495 
" style="fill: none; stroke: #ffa500; stroke-width: 0.5; stroke-linecap: round"/>
   </g>
   <g id="patch_43">
    <path d="M 349.46209 600.123615 
Q 364.317528 598.61506 379.172965 597.106504 
" style="fill: none; stroke: #ffa500; stroke-width: 0.5; stroke-linecap: round"/>
   </g>
   <g id="patch_44">
    <path d="M 367.591237 609.927957 
Q 373.226819 605.16846 378.862401 600.408962 
" style="fill: none; stroke: #ffa500; stroke-width: 0.5; stroke-linecap: round"/>
   </g>
   <g id="patch_45">
    <path d="M 217.321166 531.316766 
Q 218.27035 531.566245 219.219535 531.815723 
" style="fill: none; stroke: #ffa500; stroke-width: 0.5; stroke-linecap: round"/>
   </g>
   <g id="patch_46">
    <path d="M 227.323792 534.747135 
Q 226.999597 534.877628 226.675403 535.008122 
" style="fill: none; stroke: #ffa500; stroke-width: 0.5; stroke-linecap: round"/>
   </g>
   <g id="patch_47">
    <path d="M 541.132336 339.281086 
Q 541.027756 338.793287 540.923177 338.305488 
" style="fill: none; stroke: #ffa500; stroke-width: 0.5; stroke-linecap: round"/>
   </g>
   <g id="patch_48">
    <path d="M 405.002987 587.621214 
Q 404.82821 588.539595 404.653432 589.457977 
" style="fill: none; stroke: #ffa500; stroke-width: 0.5; stroke-linecap: round"/>
   </g>
   <g id="patch_49">
    <path d="M 420.489408 560.63708 
Q 412.494423 574.890987 404.499437 589.144895 
" style="fill: none; stroke: #ffa500; stroke-width: 0.5; stroke-linecap: round"/>
   </g>
   <g id="patch_50">
    <path d="M 406.524652 629.401748 
Q 399.386733 623.158782 392.248814 616.915816 
" style="fill: none; stroke: #ffa500; stroke-width: 0.5; stroke-linecap: round"/>
   </g>
   <g id="patch_51">
    <path d="M 464.902647 518.469133 
Q 464.084233 518.700896 463.265819 518.93266 
" style="fill: none; stroke: #ffa500; stroke-width: 0.5; stroke-linecap: round"/>
   </g>
   <g id="text_65">
    <!-- 2 Dimensional Representation of Node2Vec Algorithm -->
    <g transform="translate(207.570938 80.4) scale(0.12 -0.12)">
     <defs>
      <path id="DejaVuSans-61" d="M 2194 1759 
Q 1497 1759 1228 1600 
Q 959 1441 959 1056 
Q 959 750 1161 570 
Q 1363 391 1709 391 
Q 2188 391 2477 730 
Q 2766 1069 2766 1631 
L 2766 1759 
L 2194 1759 
z
M 3341 1997 
L 3341 0 
L 2766 0 
L 2766 531 
Q 2569 213 2275 61 
Q 1981 -91 1556 -91 
Q 1019 -91 701 211 
Q 384 513 384 1019 
Q 384 1609 779 1909 
Q 1175 2209 1959 2209 
L 2766 2209 
L 2766 2266 
Q 2766 2663 2505 2880 
Q 2244 3097 1772 3097 
Q 1472 3097 1187 3025 
Q 903 2953 641 2809 
L 641 3341 
Q 956 3463 1253 3523 
Q 1550 3584 1831 3584 
Q 2591 3584 2966 3190 
Q 3341 2797 3341 1997 
z
" transform="scale(0.015625)"/>
      <path id="DejaVuSans-4e" d="M 628 4666 
L 1478 4666 
L 3547 763 
L 3547 4666 
L 4159 4666 
L 4159 0 
L 3309 0 
L 1241 3903 
L 1241 0 
L 628 0 
L 628 4666 
z
" transform="scale(0.015625)"/>
      <path id="DejaVuSans-41" d="M 2188 4044 
L 1331 1722 
L 3047 1722 
L 2188 4044 
z
M 1831 4666 
L 2547 4666 
L 4325 0 
L 3669 0 
L 3244 1197 
L 1141 1197 
L 716 0 
L 50 0 
L 1831 4666 
z
" transform="scale(0.015625)"/>
      <path id="DejaVuSans-68" d="M 3513 2113 
L 3513 0 
L 2938 0 
L 2938 2094 
Q 2938 2591 2744 2837 
Q 2550 3084 2163 3084 
Q 1697 3084 1428 2787 
Q 1159 2491 1159 1978 
L 1159 0 
L 581 0 
L 581 4863 
L 1159 4863 
L 1159 2956 
Q 1366 3272 1645 3428 
Q 1925 3584 2291 3584 
Q 2894 3584 3203 3211 
Q 3513 2838 3513 2113 
z
" transform="scale(0.015625)"/>
     </defs>
     <use xlink:href="#DejaVuSans-32"/>
     <use xlink:href="#DejaVuSans-20" x="63.623047"/>
     <use xlink:href="#DejaVuSans-44" x="95.410156"/>
     <use xlink:href="#DejaVuSans-69" x="172.412109"/>
     <use xlink:href="#DejaVuSans-6d" x="200.195312"/>
     <use xlink:href="#DejaVuSans-65" x="297.607422"/>
     <use xlink:href="#DejaVuSans-6e" x="359.130859"/>
     <use xlink:href="#DejaVuSans-73" x="422.509766"/>
     <use xlink:href="#DejaVuSans-69" x="474.609375"/>
     <use xlink:href="#DejaVuSans-6f" x="502.392578"/>
     <use xlink:href="#DejaVuSans-6e" x="563.574219"/>
     <use xlink:href="#DejaVuSans-61" x="626.953125"/>
     <use xlink:href="#DejaVuSans-6c" x="688.232422"/>
     <use xlink:href="#DejaVuSans-20" x="716.015625"/>
     <use xlink:href="#DejaVuSans-52" x="747.802734"/>
     <use xlink:href="#DejaVuSans-65" x="812.785156"/>
     <use xlink:href="#DejaVuSans-70" x="874.308594"/>
     <use xlink:href="#DejaVuSans-72" x="937.785156"/>
     <use xlink:href="#DejaVuSans-65" x="976.648438"/>
     <use xlink:href="#DejaVuSans-73" x="1038.171875"/>
     <use xlink:href="#DejaVuSans-65" x="1090.271484"/>
     <use xlink:href="#DejaVuSans-6e" x="1151.794922"/>
     <use xlink:href="#DejaVuSans-74" x="1215.173828"/>
     <use xlink:href="#DejaVuSans-61" x="1254.382812"/>
     <use xlink:href="#DejaVuSans-74" x="1315.662109"/>
     <use xlink:href="#DejaVuSans-69" x="1354.871094"/>
     <use xlink:href="#DejaVuSans-6f" x="1382.654297"/>
     <use xlink:href="#DejaVuSans-6e" x="1443.835938"/>
     <use xlink:href="#DejaVuSans-20" x="1507.214844"/>
     <use xlink:href="#DejaVuSans-6f" x="1539.001953"/>
     <use xlink:href="#DejaVuSans-66" x="1600.183594"/>
     <use xlink:href="#DejaVuSans-20" x="1635.388672"/>
     <use xlink:href="#DejaVuSans-4e" x="1667.175781"/>
     <use xlink:href="#DejaVuSans-6f" x="1741.980469"/>
     <use xlink:href="#DejaVuSans-64" x="1803.162109"/>
     <use xlink:href="#DejaVuSans-65" x="1866.638672"/>
     <use xlink:href="#DejaVuSans-32" x="1928.162109"/>
     <use xlink:href="#DejaVuSans-56" x="1991.785156"/>
     <use xlink:href="#DejaVuSans-65" x="2052.443359"/>
     <use xlink:href="#DejaVuSans-63" x="2113.966797"/>
     <use xlink:href="#DejaVuSans-20" x="2168.947266"/>
     <use xlink:href="#DejaVuSans-41" x="2200.734375"/>
     <use xlink:href="#DejaVuSans-6c" x="2269.142578"/>
     <use xlink:href="#DejaVuSans-67" x="2296.925781"/>
     <use xlink:href="#DejaVuSans-6f" x="2360.402344"/>
     <use xlink:href="#DejaVuSans-72" x="2421.583984"/>
     <use xlink:href="#DejaVuSans-69" x="2462.697266"/>
     <use xlink:href="#DejaVuSans-74" x="2490.480469"/>
     <use xlink:href="#DejaVuSans-68" x="2529.689453"/>
     <use xlink:href="#DejaVuSans-6d" x="2593.068359"/>
    </g>
   </g>
  </g>
 </g>
 <defs>
  <clipPath id="p6df2d21578">
   <rect x="90" y="86.4" width="558" height="554.4"/>
  </clipPath>
 </defs>
</svg>
