<?xml version="1.0" encoding="utf-8" standalone="no"?>
<!DOCTYPE svg PUBLIC "-//W3C//DTD SVG 1.1//EN"
  "http://www.w3.org/Graphics/SVG/1.1/DTD/svg11.dtd">
<svg xmlns:xlink="http://www.w3.org/1999/xlink" width="720pt" height="720pt" viewBox="0 0 720 720" xmlns="http://www.w3.org/2000/svg" version="1.1">
 <metadata>
  <rdf:RDF xmlns:dc="http://purl.org/dc/elements/1.1/" xmlns:cc="http://creativecommons.org/ns#" xmlns:rdf="http://www.w3.org/1999/02/22-rdf-syntax-ns#">
   <cc:Work>
    <dc:type rdf:resource="http://purl.org/dc/dcmitype/StillImage"/>
    <dc:date>2023-06-23T14:05:34.186857</dc:date>
    <dc:format>image/svg+xml</dc:format>
    <dc:creator>
     <cc:Agent>
      <dc:title>Matplotlib v3.7.1, https://matplotlib.org/</dc:title>
     </cc:Agent>
    </dc:creator>
   </cc:Work>
  </rdf:RDF>
 </metadata>
 <defs>
  <style type="text/css">*{stroke-linejoin: round; stroke-linecap: butt}</style>
 </defs>
 <g id="figure_1">
  <g id="patch_1">
   <path d="M 0 720 
L 720 720 
L 720 0 
L 0 0 
z
" style="fill: #ffffff"/>
  </g>
  <g id="axes_1">
   <g id="patch_2">
    <path d="M 90 640.8 
L 648 640.8 
L 648 86.4 
L 90 86.4 
z
" style="fill: #ffffff"/>
   </g>
   <g id="PathCollection_1">
    <defs>
     <path id="m01b6f7102d" d="M 0 3 
C 0.795609 3 1.55874 2.683901 2.12132 2.12132 
C 2.683901 1.55874 3 0.795609 3 0 
C 3 -0.795609 2.683901 -1.55874 2.12132 -2.12132 
C 1.55874 -2.683901 0.795609 -3 0 -3 
C -0.795609 -3 -1.55874 -2.683901 -2.12132 -2.12132 
C -2.683901 -1.55874 -3 -0.795609 -3 0 
C -3 0.795609 -2.683901 1.55874 -2.12132 2.12132 
C -1.55874 2.683901 -0.795609 3 0 3 
z
" style="stroke: #000000"/>
    </defs>
    <g clip-path="url(#p0bc9ffe76e)">
     <use xlink:href="#m01b6f7102d" x="152.951458" y="205.657417" style="stroke: #000000"/>
     <use xlink:href="#m01b6f7102d" x="196.869134" y="247.767689" style="stroke: #000000"/>
     <use xlink:href="#m01b6f7102d" x="316.753712" y="111.6" style="stroke: #000000"/>
     <use xlink:href="#m01b6f7102d" x="331.799446" y="184.264702" style="stroke: #000000"/>
     <use xlink:href="#m01b6f7102d" x="552.044945" y="371.596374" style="stroke: #000000"/>
     <use xlink:href="#m01b6f7102d" x="523.794679" y="373.369467" style="stroke: #000000"/>
     <use xlink:href="#m01b6f7102d" x="333.397688" y="154.081992" style="stroke: #000000"/>
     <use xlink:href="#m01b6f7102d" x="550.41098" y="390.515337" style="stroke: #000000"/>
     <use xlink:href="#m01b6f7102d" x="331.329435" y="135.30899" style="stroke: #000000"/>
     <use xlink:href="#m01b6f7102d" x="533.412463" y="382.579551" style="stroke: #000000"/>
     <use xlink:href="#m01b6f7102d" x="377.091662" y="443.242028" style="stroke: #000000"/>
     <use xlink:href="#m01b6f7102d" x="370.98092" y="428.821085" style="stroke: #000000"/>
     <use xlink:href="#m01b6f7102d" x="265.627792" y="294.098816" style="stroke: #000000"/>
     <use xlink:href="#m01b6f7102d" x="274.148624" y="309.301644" style="stroke: #000000"/>
     <use xlink:href="#m01b6f7102d" x="115.363636" y="446.025313" style="stroke: #000000"/>
     <use xlink:href="#m01b6f7102d" x="168.833752" y="431.456622" style="stroke: #000000"/>
     <use xlink:href="#m01b6f7102d" x="502.918232" y="257.642665" style="stroke: #000000"/>
     <use xlink:href="#m01b6f7102d" x="480.53547" y="287.040863" style="stroke: #000000"/>
     <use xlink:href="#m01b6f7102d" x="144.525298" y="440.207286" style="stroke: #000000"/>
     <use xlink:href="#m01b6f7102d" x="505.868487" y="256.905359" style="stroke: #000000"/>
     <use xlink:href="#m01b6f7102d" x="125.797328" y="444.50674" style="stroke: #000000"/>
     <use xlink:href="#m01b6f7102d" x="543.771521" y="224.773987" style="stroke: #000000"/>
     <use xlink:href="#m01b6f7102d" x="269.953393" y="297.946354" style="stroke: #000000"/>
     <use xlink:href="#m01b6f7102d" x="427.593583" y="593.017633" style="stroke: #000000"/>
     <use xlink:href="#m01b6f7102d" x="425.571311" y="566.217973" style="stroke: #000000"/>
     <use xlink:href="#m01b6f7102d" x="448.6855" y="614.559284" style="stroke: #000000"/>
     <use xlink:href="#m01b6f7102d" x="440.478774" y="615.6" style="stroke: #000000"/>
     <use xlink:href="#m01b6f7102d" x="284.060495" y="523.503286" style="stroke: #000000"/>
     <use xlink:href="#m01b6f7102d" x="306.016507" y="476.174116" style="stroke: #000000"/>
     <use xlink:href="#m01b6f7102d" x="261.151752" y="571.90058" style="stroke: #000000"/>
     <use xlink:href="#m01b6f7102d" x="295.777664" y="499.710828" style="stroke: #000000"/>
     <use xlink:href="#m01b6f7102d" x="266.978159" y="295.34021" style="stroke: #000000"/>
     <use xlink:href="#m01b6f7102d" x="171.547267" y="225.232313" style="stroke: #000000"/>
     <use xlink:href="#m01b6f7102d" x="143.507877" y="198.804477" style="stroke: #000000"/>
     <use xlink:href="#m01b6f7102d" x="413.437787" y="428.721883" style="stroke: #000000"/>
     <use xlink:href="#m01b6f7102d" x="399.483686" y="428.038702" style="stroke: #000000"/>
     <use xlink:href="#m01b6f7102d" x="403.538706" y="414.111624" style="stroke: #000000"/>
     <use xlink:href="#m01b6f7102d" x="404.753184" y="429.832081" style="stroke: #000000"/>
     <use xlink:href="#m01b6f7102d" x="301.336597" y="376.406748" style="stroke: #000000"/>
     <use xlink:href="#m01b6f7102d" x="317.815258" y="368.463385" style="stroke: #000000"/>
     <use xlink:href="#m01b6f7102d" x="251.984151" y="285.147343" style="stroke: #000000"/>
     <use xlink:href="#m01b6f7102d" x="622.636364" y="343.774733" style="stroke: #000000"/>
     <use xlink:href="#m01b6f7102d" x="563.86454" y="347.523355" style="stroke: #000000"/>
     <use xlink:href="#m01b6f7102d" x="378.54397" y="442.71843" style="stroke: #000000"/>
     <use xlink:href="#m01b6f7102d" x="320.284838" y="357.430125" style="stroke: #000000"/>
    </g>
   </g>
   <g id="matplotlib.axis_1">
    <g id="xtick_1">
     <g id="line2d_1">
      <defs>
       <path id="m37c20a72b7" d="M 0 0 
L 0 3.5 
" style="stroke: #000000; stroke-width: 0.8"/>
      </defs>
      <g>
       <use xlink:href="#m37c20a72b7" x="95.715227" y="640.8" style="stroke: #000000; stroke-width: 0.8"/>
      </g>
     </g>
     <g id="text_1">
      <!-- −0.8 -->
      <g transform="translate(83.573821 655.398438) scale(0.1 -0.1)">
       <defs>
        <path id="DejaVuSans-2212" d="M 678 2272 
L 4684 2272 
L 4684 1741 
L 678 1741 
L 678 2272 
z
" transform="scale(0.015625)"/>
        <path id="DejaVuSans-30" d="M 2034 4250 
Q 1547 4250 1301 3770 
Q 1056 3291 1056 2328 
Q 1056 1369 1301 889 
Q 1547 409 2034 409 
Q 2525 409 2770 889 
Q 3016 1369 3016 2328 
Q 3016 3291 2770 3770 
Q 2525 4250 2034 4250 
z
M 2034 4750 
Q 2819 4750 3233 4129 
Q 3647 3509 3647 2328 
Q 3647 1150 3233 529 
Q 2819 -91 2034 -91 
Q 1250 -91 836 529 
Q 422 1150 422 2328 
Q 422 3509 836 4129 
Q 1250 4750 2034 4750 
z
" transform="scale(0.015625)"/>
        <path id="DejaVuSans-2e" d="M 684 794 
L 1344 794 
L 1344 0 
L 684 0 
L 684 794 
z
" transform="scale(0.015625)"/>
        <path id="DejaVuSans-38" d="M 2034 2216 
Q 1584 2216 1326 1975 
Q 1069 1734 1069 1313 
Q 1069 891 1326 650 
Q 1584 409 2034 409 
Q 2484 409 2743 651 
Q 3003 894 3003 1313 
Q 3003 1734 2745 1975 
Q 2488 2216 2034 2216 
z
M 1403 2484 
Q 997 2584 770 2862 
Q 544 3141 544 3541 
Q 544 4100 942 4425 
Q 1341 4750 2034 4750 
Q 2731 4750 3128 4425 
Q 3525 4100 3525 3541 
Q 3525 3141 3298 2862 
Q 3072 2584 2669 2484 
Q 3125 2378 3379 2068 
Q 3634 1759 3634 1313 
Q 3634 634 3220 271 
Q 2806 -91 2034 -91 
Q 1263 -91 848 271 
Q 434 634 434 1313 
Q 434 1759 690 2068 
Q 947 2378 1403 2484 
z
M 1172 3481 
Q 1172 3119 1398 2916 
Q 1625 2713 2034 2713 
Q 2441 2713 2670 2916 
Q 2900 3119 2900 3481 
Q 2900 3844 2670 4047 
Q 2441 4250 2034 4250 
Q 1625 4250 1398 4047 
Q 1172 3844 1172 3481 
z
" transform="scale(0.015625)"/>
       </defs>
       <use xlink:href="#DejaVuSans-2212"/>
       <use xlink:href="#DejaVuSans-30" x="83.789062"/>
       <use xlink:href="#DejaVuSans-2e" x="147.412109"/>
       <use xlink:href="#DejaVuSans-38" x="179.199219"/>
      </g>
     </g>
    </g>
    <g id="xtick_2">
     <g id="line2d_2">
      <g>
       <use xlink:href="#m37c20a72b7" x="159.808339" y="640.8" style="stroke: #000000; stroke-width: 0.8"/>
      </g>
     </g>
     <g id="text_2">
      <!-- −0.6 -->
      <g transform="translate(147.666932 655.398438) scale(0.1 -0.1)">
       <defs>
        <path id="DejaVuSans-36" d="M 2113 2584 
Q 1688 2584 1439 2293 
Q 1191 2003 1191 1497 
Q 1191 994 1439 701 
Q 1688 409 2113 409 
Q 2538 409 2786 701 
Q 3034 994 3034 1497 
Q 3034 2003 2786 2293 
Q 2538 2584 2113 2584 
z
M 3366 4563 
L 3366 3988 
Q 3128 4100 2886 4159 
Q 2644 4219 2406 4219 
Q 1781 4219 1451 3797 
Q 1122 3375 1075 2522 
Q 1259 2794 1537 2939 
Q 1816 3084 2150 3084 
Q 2853 3084 3261 2657 
Q 3669 2231 3669 1497 
Q 3669 778 3244 343 
Q 2819 -91 2113 -91 
Q 1303 -91 875 529 
Q 447 1150 447 2328 
Q 447 3434 972 4092 
Q 1497 4750 2381 4750 
Q 2619 4750 2861 4703 
Q 3103 4656 3366 4563 
z
" transform="scale(0.015625)"/>
       </defs>
       <use xlink:href="#DejaVuSans-2212"/>
       <use xlink:href="#DejaVuSans-30" x="83.789062"/>
       <use xlink:href="#DejaVuSans-2e" x="147.412109"/>
       <use xlink:href="#DejaVuSans-36" x="179.199219"/>
      </g>
     </g>
    </g>
    <g id="xtick_3">
     <g id="line2d_3">
      <g>
       <use xlink:href="#m37c20a72b7" x="223.901451" y="640.8" style="stroke: #000000; stroke-width: 0.8"/>
      </g>
     </g>
     <g id="text_3">
      <!-- −0.4 -->
      <g transform="translate(211.760044 655.398438) scale(0.1 -0.1)">
       <defs>
        <path id="DejaVuSans-34" d="M 2419 4116 
L 825 1625 
L 2419 1625 
L 2419 4116 
z
M 2253 4666 
L 3047 4666 
L 3047 1625 
L 3713 1625 
L 3713 1100 
L 3047 1100 
L 3047 0 
L 2419 0 
L 2419 1100 
L 313 1100 
L 313 1709 
L 2253 4666 
z
" transform="scale(0.015625)"/>
       </defs>
       <use xlink:href="#DejaVuSans-2212"/>
       <use xlink:href="#DejaVuSans-30" x="83.789062"/>
       <use xlink:href="#DejaVuSans-2e" x="147.412109"/>
       <use xlink:href="#DejaVuSans-34" x="179.199219"/>
      </g>
     </g>
    </g>
    <g id="xtick_4">
     <g id="line2d_4">
      <g>
       <use xlink:href="#m37c20a72b7" x="287.994563" y="640.8" style="stroke: #000000; stroke-width: 0.8"/>
      </g>
     </g>
     <g id="text_4">
      <!-- −0.2 -->
      <g transform="translate(275.853156 655.398438) scale(0.1 -0.1)">
       <defs>
        <path id="DejaVuSans-32" d="M 1228 531 
L 3431 531 
L 3431 0 
L 469 0 
L 469 531 
Q 828 903 1448 1529 
Q 2069 2156 2228 2338 
Q 2531 2678 2651 2914 
Q 2772 3150 2772 3378 
Q 2772 3750 2511 3984 
Q 2250 4219 1831 4219 
Q 1534 4219 1204 4116 
Q 875 4013 500 3803 
L 500 4441 
Q 881 4594 1212 4672 
Q 1544 4750 1819 4750 
Q 2544 4750 2975 4387 
Q 3406 4025 3406 3419 
Q 3406 3131 3298 2873 
Q 3191 2616 2906 2266 
Q 2828 2175 2409 1742 
Q 1991 1309 1228 531 
z
" transform="scale(0.015625)"/>
       </defs>
       <use xlink:href="#DejaVuSans-2212"/>
       <use xlink:href="#DejaVuSans-30" x="83.789062"/>
       <use xlink:href="#DejaVuSans-2e" x="147.412109"/>
       <use xlink:href="#DejaVuSans-32" x="179.199219"/>
      </g>
     </g>
    </g>
    <g id="xtick_5">
     <g id="line2d_5">
      <g>
       <use xlink:href="#m37c20a72b7" x="352.087675" y="640.8" style="stroke: #000000; stroke-width: 0.8"/>
      </g>
     </g>
     <g id="text_5">
      <!-- 0.0 -->
      <g transform="translate(344.136112 655.398438) scale(0.1 -0.1)">
       <use xlink:href="#DejaVuSans-30"/>
       <use xlink:href="#DejaVuSans-2e" x="63.623047"/>
       <use xlink:href="#DejaVuSans-30" x="95.410156"/>
      </g>
     </g>
    </g>
    <g id="xtick_6">
     <g id="line2d_6">
      <g>
       <use xlink:href="#m37c20a72b7" x="416.180786" y="640.8" style="stroke: #000000; stroke-width: 0.8"/>
      </g>
     </g>
     <g id="text_6">
      <!-- 0.2 -->
      <g transform="translate(408.229224 655.398438) scale(0.1 -0.1)">
       <use xlink:href="#DejaVuSans-30"/>
       <use xlink:href="#DejaVuSans-2e" x="63.623047"/>
       <use xlink:href="#DejaVuSans-32" x="95.410156"/>
      </g>
     </g>
    </g>
    <g id="xtick_7">
     <g id="line2d_7">
      <g>
       <use xlink:href="#m37c20a72b7" x="480.273898" y="640.8" style="stroke: #000000; stroke-width: 0.8"/>
      </g>
     </g>
     <g id="text_7">
      <!-- 0.4 -->
      <g transform="translate(472.322336 655.398438) scale(0.1 -0.1)">
       <use xlink:href="#DejaVuSans-30"/>
       <use xlink:href="#DejaVuSans-2e" x="63.623047"/>
       <use xlink:href="#DejaVuSans-34" x="95.410156"/>
      </g>
     </g>
    </g>
    <g id="xtick_8">
     <g id="line2d_8">
      <g>
       <use xlink:href="#m37c20a72b7" x="544.36701" y="640.8" style="stroke: #000000; stroke-width: 0.8"/>
      </g>
     </g>
     <g id="text_8">
      <!-- 0.6 -->
      <g transform="translate(536.415448 655.398438) scale(0.1 -0.1)">
       <use xlink:href="#DejaVuSans-30"/>
       <use xlink:href="#DejaVuSans-2e" x="63.623047"/>
       <use xlink:href="#DejaVuSans-36" x="95.410156"/>
      </g>
     </g>
    </g>
    <g id="xtick_9">
     <g id="line2d_9">
      <g>
       <use xlink:href="#m37c20a72b7" x="608.460122" y="640.8" style="stroke: #000000; stroke-width: 0.8"/>
      </g>
     </g>
     <g id="text_9">
      <!-- 0.8 -->
      <g transform="translate(600.50856 655.398438) scale(0.1 -0.1)">
       <use xlink:href="#DejaVuSans-30"/>
       <use xlink:href="#DejaVuSans-2e" x="63.623047"/>
       <use xlink:href="#DejaVuSans-38" x="95.410156"/>
      </g>
     </g>
    </g>
    <g id="text_10">
     <!-- Dimension 1 -->
     <g transform="translate(337.653125 669.076563) scale(0.1 -0.1)">
      <defs>
       <path id="DejaVuSans-44" d="M 1259 4147 
L 1259 519 
L 2022 519 
Q 2988 519 3436 956 
Q 3884 1394 3884 2338 
Q 3884 3275 3436 3711 
Q 2988 4147 2022 4147 
L 1259 4147 
z
M 628 4666 
L 1925 4666 
Q 3281 4666 3915 4102 
Q 4550 3538 4550 2338 
Q 4550 1131 3912 565 
Q 3275 0 1925 0 
L 628 0 
L 628 4666 
z
" transform="scale(0.015625)"/>
       <path id="DejaVuSans-69" d="M 603 3500 
L 1178 3500 
L 1178 0 
L 603 0 
L 603 3500 
z
M 603 4863 
L 1178 4863 
L 1178 4134 
L 603 4134 
L 603 4863 
z
" transform="scale(0.015625)"/>
       <path id="DejaVuSans-6d" d="M 3328 2828 
Q 3544 3216 3844 3400 
Q 4144 3584 4550 3584 
Q 5097 3584 5394 3201 
Q 5691 2819 5691 2113 
L 5691 0 
L 5113 0 
L 5113 2094 
Q 5113 2597 4934 2840 
Q 4756 3084 4391 3084 
Q 3944 3084 3684 2787 
Q 3425 2491 3425 1978 
L 3425 0 
L 2847 0 
L 2847 2094 
Q 2847 2600 2669 2842 
Q 2491 3084 2119 3084 
Q 1678 3084 1418 2786 
Q 1159 2488 1159 1978 
L 1159 0 
L 581 0 
L 581 3500 
L 1159 3500 
L 1159 2956 
Q 1356 3278 1631 3431 
Q 1906 3584 2284 3584 
Q 2666 3584 2933 3390 
Q 3200 3197 3328 2828 
z
" transform="scale(0.015625)"/>
       <path id="DejaVuSans-65" d="M 3597 1894 
L 3597 1613 
L 953 1613 
Q 991 1019 1311 708 
Q 1631 397 2203 397 
Q 2534 397 2845 478 
Q 3156 559 3463 722 
L 3463 178 
Q 3153 47 2828 -22 
Q 2503 -91 2169 -91 
Q 1331 -91 842 396 
Q 353 884 353 1716 
Q 353 2575 817 3079 
Q 1281 3584 2069 3584 
Q 2775 3584 3186 3129 
Q 3597 2675 3597 1894 
z
M 3022 2063 
Q 3016 2534 2758 2815 
Q 2500 3097 2075 3097 
Q 1594 3097 1305 2825 
Q 1016 2553 972 2059 
L 3022 2063 
z
" transform="scale(0.015625)"/>
       <path id="DejaVuSans-6e" d="M 3513 2113 
L 3513 0 
L 2938 0 
L 2938 2094 
Q 2938 2591 2744 2837 
Q 2550 3084 2163 3084 
Q 1697 3084 1428 2787 
Q 1159 2491 1159 1978 
L 1159 0 
L 581 0 
L 581 3500 
L 1159 3500 
L 1159 2956 
Q 1366 3272 1645 3428 
Q 1925 3584 2291 3584 
Q 2894 3584 3203 3211 
Q 3513 2838 3513 2113 
z
" transform="scale(0.015625)"/>
       <path id="DejaVuSans-73" d="M 2834 3397 
L 2834 2853 
Q 2591 2978 2328 3040 
Q 2066 3103 1784 3103 
Q 1356 3103 1142 2972 
Q 928 2841 928 2578 
Q 928 2378 1081 2264 
Q 1234 2150 1697 2047 
L 1894 2003 
Q 2506 1872 2764 1633 
Q 3022 1394 3022 966 
Q 3022 478 2636 193 
Q 2250 -91 1575 -91 
Q 1294 -91 989 -36 
Q 684 19 347 128 
L 347 722 
Q 666 556 975 473 
Q 1284 391 1588 391 
Q 1994 391 2212 530 
Q 2431 669 2431 922 
Q 2431 1156 2273 1281 
Q 2116 1406 1581 1522 
L 1381 1569 
Q 847 1681 609 1914 
Q 372 2147 372 2553 
Q 372 3047 722 3315 
Q 1072 3584 1716 3584 
Q 2034 3584 2315 3537 
Q 2597 3491 2834 3397 
z
" transform="scale(0.015625)"/>
       <path id="DejaVuSans-6f" d="M 1959 3097 
Q 1497 3097 1228 2736 
Q 959 2375 959 1747 
Q 959 1119 1226 758 
Q 1494 397 1959 397 
Q 2419 397 2687 759 
Q 2956 1122 2956 1747 
Q 2956 2369 2687 2733 
Q 2419 3097 1959 3097 
z
M 1959 3584 
Q 2709 3584 3137 3096 
Q 3566 2609 3566 1747 
Q 3566 888 3137 398 
Q 2709 -91 1959 -91 
Q 1206 -91 779 398 
Q 353 888 353 1747 
Q 353 2609 779 3096 
Q 1206 3584 1959 3584 
z
" transform="scale(0.015625)"/>
       <path id="DejaVuSans-20" transform="scale(0.015625)"/>
       <path id="DejaVuSans-31" d="M 794 531 
L 1825 531 
L 1825 4091 
L 703 3866 
L 703 4441 
L 1819 4666 
L 2450 4666 
L 2450 531 
L 3481 531 
L 3481 0 
L 794 0 
L 794 531 
z
" transform="scale(0.015625)"/>
      </defs>
      <use xlink:href="#DejaVuSans-44"/>
      <use xlink:href="#DejaVuSans-69" x="77.001953"/>
      <use xlink:href="#DejaVuSans-6d" x="104.785156"/>
      <use xlink:href="#DejaVuSans-65" x="202.197266"/>
      <use xlink:href="#DejaVuSans-6e" x="263.720703"/>
      <use xlink:href="#DejaVuSans-73" x="327.099609"/>
      <use xlink:href="#DejaVuSans-69" x="379.199219"/>
      <use xlink:href="#DejaVuSans-6f" x="406.982422"/>
      <use xlink:href="#DejaVuSans-6e" x="468.164062"/>
      <use xlink:href="#DejaVuSans-20" x="531.542969"/>
      <use xlink:href="#DejaVuSans-31" x="563.330078"/>
     </g>
    </g>
   </g>
   <g id="matplotlib.axis_2">
    <g id="ytick_1">
     <g id="line2d_10">
      <defs>
       <path id="mc2ee5df2b9" d="M 0 0 
L -3.5 0 
" style="stroke: #000000; stroke-width: 0.8"/>
      </defs>
      <g>
       <use xlink:href="#mc2ee5df2b9" x="90" y="636.303626" style="stroke: #000000; stroke-width: 0.8"/>
      </g>
     </g>
     <g id="text_11">
      <!-- −0.8 -->
      <g transform="translate(58.717187 640.102844) scale(0.1 -0.1)">
       <use xlink:href="#DejaVuSans-2212"/>
       <use xlink:href="#DejaVuSans-30" x="83.789062"/>
       <use xlink:href="#DejaVuSans-2e" x="147.412109"/>
       <use xlink:href="#DejaVuSans-38" x="179.199219"/>
      </g>
     </g>
    </g>
    <g id="ytick_2">
     <g id="line2d_11">
      <g>
       <use xlink:href="#mc2ee5df2b9" x="90" y="569.750646" style="stroke: #000000; stroke-width: 0.8"/>
      </g>
     </g>
     <g id="text_12">
      <!-- −0.6 -->
      <g transform="translate(58.717187 573.549864) scale(0.1 -0.1)">
       <use xlink:href="#DejaVuSans-2212"/>
       <use xlink:href="#DejaVuSans-30" x="83.789062"/>
       <use xlink:href="#DejaVuSans-2e" x="147.412109"/>
       <use xlink:href="#DejaVuSans-36" x="179.199219"/>
      </g>
     </g>
    </g>
    <g id="ytick_3">
     <g id="line2d_12">
      <g>
       <use xlink:href="#mc2ee5df2b9" x="90" y="503.197666" style="stroke: #000000; stroke-width: 0.8"/>
      </g>
     </g>
     <g id="text_13">
      <!-- −0.4 -->
      <g transform="translate(58.717187 506.996885) scale(0.1 -0.1)">
       <use xlink:href="#DejaVuSans-2212"/>
       <use xlink:href="#DejaVuSans-30" x="83.789062"/>
       <use xlink:href="#DejaVuSans-2e" x="147.412109"/>
       <use xlink:href="#DejaVuSans-34" x="179.199219"/>
      </g>
     </g>
    </g>
    <g id="ytick_4">
     <g id="line2d_13">
      <g>
       <use xlink:href="#mc2ee5df2b9" x="90" y="436.644686" style="stroke: #000000; stroke-width: 0.8"/>
      </g>
     </g>
     <g id="text_14">
      <!-- −0.2 -->
      <g transform="translate(58.717187 440.443905) scale(0.1 -0.1)">
       <use xlink:href="#DejaVuSans-2212"/>
       <use xlink:href="#DejaVuSans-30" x="83.789062"/>
       <use xlink:href="#DejaVuSans-2e" x="147.412109"/>
       <use xlink:href="#DejaVuSans-32" x="179.199219"/>
      </g>
     </g>
    </g>
    <g id="ytick_5">
     <g id="line2d_14">
      <g>
       <use xlink:href="#mc2ee5df2b9" x="90" y="370.091706" style="stroke: #000000; stroke-width: 0.8"/>
      </g>
     </g>
     <g id="text_15">
      <!-- 0.0 -->
      <g transform="translate(67.096875 373.890925) scale(0.1 -0.1)">
       <use xlink:href="#DejaVuSans-30"/>
       <use xlink:href="#DejaVuSans-2e" x="63.623047"/>
       <use xlink:href="#DejaVuSans-30" x="95.410156"/>
      </g>
     </g>
    </g>
    <g id="ytick_6">
     <g id="line2d_15">
      <g>
       <use xlink:href="#mc2ee5df2b9" x="90" y="303.538726" style="stroke: #000000; stroke-width: 0.8"/>
      </g>
     </g>
     <g id="text_16">
      <!-- 0.2 -->
      <g transform="translate(67.096875 307.337945) scale(0.1 -0.1)">
       <use xlink:href="#DejaVuSans-30"/>
       <use xlink:href="#DejaVuSans-2e" x="63.623047"/>
       <use xlink:href="#DejaVuSans-32" x="95.410156"/>
      </g>
     </g>
    </g>
    <g id="ytick_7">
     <g id="line2d_16">
      <g>
       <use xlink:href="#mc2ee5df2b9" x="90" y="236.985746" style="stroke: #000000; stroke-width: 0.8"/>
      </g>
     </g>
     <g id="text_17">
      <!-- 0.4 -->
      <g transform="translate(67.096875 240.784965) scale(0.1 -0.1)">
       <use xlink:href="#DejaVuSans-30"/>
       <use xlink:href="#DejaVuSans-2e" x="63.623047"/>
       <use xlink:href="#DejaVuSans-34" x="95.410156"/>
      </g>
     </g>
    </g>
    <g id="ytick_8">
     <g id="line2d_17">
      <g>
       <use xlink:href="#mc2ee5df2b9" x="90" y="170.432766" style="stroke: #000000; stroke-width: 0.8"/>
      </g>
     </g>
     <g id="text_18">
      <!-- 0.6 -->
      <g transform="translate(67.096875 174.231985) scale(0.1 -0.1)">
       <use xlink:href="#DejaVuSans-30"/>
       <use xlink:href="#DejaVuSans-2e" x="63.623047"/>
       <use xlink:href="#DejaVuSans-36" x="95.410156"/>
      </g>
     </g>
    </g>
    <g id="ytick_9">
     <g id="line2d_18">
      <g>
       <use xlink:href="#mc2ee5df2b9" x="90" y="103.879787" style="stroke: #000000; stroke-width: 0.8"/>
      </g>
     </g>
     <g id="text_19">
      <!-- 0.8 -->
      <g transform="translate(67.096875 107.679005) scale(0.1 -0.1)">
       <use xlink:href="#DejaVuSans-30"/>
       <use xlink:href="#DejaVuSans-2e" x="63.623047"/>
       <use xlink:href="#DejaVuSans-38" x="95.410156"/>
      </g>
     </g>
    </g>
    <g id="text_20">
     <!-- Dimension 2 -->
     <g transform="translate(52.6375 394.946875) rotate(-90) scale(0.1 -0.1)">
      <use xlink:href="#DejaVuSans-44"/>
      <use xlink:href="#DejaVuSans-69" x="77.001953"/>
      <use xlink:href="#DejaVuSans-6d" x="104.785156"/>
      <use xlink:href="#DejaVuSans-65" x="202.197266"/>
      <use xlink:href="#DejaVuSans-6e" x="263.720703"/>
      <use xlink:href="#DejaVuSans-73" x="327.099609"/>
      <use xlink:href="#DejaVuSans-69" x="379.199219"/>
      <use xlink:href="#DejaVuSans-6f" x="406.982422"/>
      <use xlink:href="#DejaVuSans-6e" x="468.164062"/>
      <use xlink:href="#DejaVuSans-20" x="531.542969"/>
      <use xlink:href="#DejaVuSans-32" x="563.330078"/>
     </g>
    </g>
   </g>
   <g id="patch_3">
    <path d="M 90 640.8 
L 90 86.4 
" style="fill: none; stroke: #000000; stroke-width: 0.8; stroke-linejoin: miter; stroke-linecap: square"/>
   </g>
   <g id="patch_4">
    <path d="M 648 640.8 
L 648 86.4 
" style="fill: none; stroke: #000000; stroke-width: 0.8; stroke-linejoin: miter; stroke-linecap: square"/>
   </g>
   <g id="patch_5">
    <path d="M 90 640.8 
L 648 640.8 
" style="fill: none; stroke: #000000; stroke-width: 0.8; stroke-linejoin: miter; stroke-linecap: square"/>
   </g>
   <g id="patch_6">
    <path d="M 90 86.4 
L 648 86.4 
" style="fill: none; stroke: #000000; stroke-width: 0.8; stroke-linejoin: miter; stroke-linecap: square"/>
   </g>
   <g id="text_21">
    <!-- BE -->
    <g transform="translate(153.282208 214.263855) scale(0.1 -0.1)">
     <defs>
      <path id="DejaVuSans-42" d="M 1259 2228 
L 1259 519 
L 2272 519 
Q 2781 519 3026 730 
Q 3272 941 3272 1375 
Q 3272 1813 3026 2020 
Q 2781 2228 2272 2228 
L 1259 2228 
z
M 1259 4147 
L 1259 2741 
L 2194 2741 
Q 2656 2741 2882 2914 
Q 3109 3088 3109 3444 
Q 3109 3797 2882 3972 
Q 2656 4147 2194 4147 
L 1259 4147 
z
M 628 4666 
L 2241 4666 
Q 2963 4666 3353 4366 
Q 3744 4066 3744 3513 
Q 3744 3084 3544 2831 
Q 3344 2578 2956 2516 
Q 3422 2416 3680 2098 
Q 3938 1781 3938 1306 
Q 3938 681 3513 340 
Q 3088 0 2303 0 
L 628 0 
L 628 4666 
z
" transform="scale(0.015625)"/>
      <path id="DejaVuSans-45" d="M 628 4666 
L 3578 4666 
L 3578 4134 
L 1259 4134 
L 1259 2753 
L 3481 2753 
L 3481 2222 
L 1259 2222 
L 1259 531 
L 3634 531 
L 3634 0 
L 628 0 
L 628 4666 
z
" transform="scale(0.015625)"/>
     </defs>
     <use xlink:href="#DejaVuSans-42"/>
     <use xlink:href="#DejaVuSans-45" x="68.603516"/>
    </g>
   </g>
   <g id="text_22">
    <!-- identifier -->
    <g transform="translate(197.994134 244.680002) scale(0.1 -0.1)">
     <defs>
      <path id="DejaVuSans-64" d="M 2906 2969 
L 2906 4863 
L 3481 4863 
L 3481 0 
L 2906 0 
L 2906 525 
Q 2725 213 2448 61 
Q 2172 -91 1784 -91 
Q 1150 -91 751 415 
Q 353 922 353 1747 
Q 353 2572 751 3078 
Q 1150 3584 1784 3584 
Q 2172 3584 2448 3432 
Q 2725 3281 2906 2969 
z
M 947 1747 
Q 947 1113 1208 752 
Q 1469 391 1925 391 
Q 2381 391 2643 752 
Q 2906 1113 2906 1747 
Q 2906 2381 2643 2742 
Q 2381 3103 1925 3103 
Q 1469 3103 1208 2742 
Q 947 2381 947 1747 
z
" transform="scale(0.015625)"/>
      <path id="DejaVuSans-74" d="M 1172 4494 
L 1172 3500 
L 2356 3500 
L 2356 3053 
L 1172 3053 
L 1172 1153 
Q 1172 725 1289 603 
Q 1406 481 1766 481 
L 2356 481 
L 2356 0 
L 1766 0 
Q 1100 0 847 248 
Q 594 497 594 1153 
L 594 3053 
L 172 3053 
L 172 3500 
L 594 3500 
L 594 4494 
L 1172 4494 
z
" transform="scale(0.015625)"/>
      <path id="DejaVuSans-66" d="M 2375 4863 
L 2375 4384 
L 1825 4384 
Q 1516 4384 1395 4259 
Q 1275 4134 1275 3809 
L 1275 3500 
L 2222 3500 
L 2222 3053 
L 1275 3053 
L 1275 0 
L 697 0 
L 697 3053 
L 147 3053 
L 147 3500 
L 697 3500 
L 697 3744 
Q 697 4328 969 4595 
Q 1241 4863 1831 4863 
L 2375 4863 
z
" transform="scale(0.015625)"/>
      <path id="DejaVuSans-72" d="M 2631 2963 
Q 2534 3019 2420 3045 
Q 2306 3072 2169 3072 
Q 1681 3072 1420 2755 
Q 1159 2438 1159 1844 
L 1159 0 
L 581 0 
L 581 3500 
L 1159 3500 
L 1159 2956 
Q 1341 3275 1631 3429 
Q 1922 3584 2338 3584 
Q 2397 3584 2469 3576 
Q 2541 3569 2628 3553 
L 2631 2963 
z
" transform="scale(0.015625)"/>
     </defs>
     <use xlink:href="#DejaVuSans-69"/>
     <use xlink:href="#DejaVuSans-64" x="27.783203"/>
     <use xlink:href="#DejaVuSans-65" x="91.259766"/>
     <use xlink:href="#DejaVuSans-6e" x="152.783203"/>
     <use xlink:href="#DejaVuSans-74" x="216.162109"/>
     <use xlink:href="#DejaVuSans-69" x="255.371094"/>
     <use xlink:href="#DejaVuSans-66" x="283.154297"/>
     <use xlink:href="#DejaVuSans-69" x="318.359375"/>
     <use xlink:href="#DejaVuSans-65" x="346.142578"/>
     <use xlink:href="#DejaVuSans-72" x="407.666016"/>
    </g>
   </g>
   <g id="text_23">
    <!-- BUCV10RGLMME -->
    <g transform="translate(318.868712 108.512313) scale(0.1 -0.1)">
     <defs>
      <path id="DejaVuSans-55" d="M 556 4666 
L 1191 4666 
L 1191 1831 
Q 1191 1081 1462 751 
Q 1734 422 2344 422 
Q 2950 422 3222 751 
Q 3494 1081 3494 1831 
L 3494 4666 
L 4128 4666 
L 4128 1753 
Q 4128 841 3676 375 
Q 3225 -91 2344 -91 
Q 1459 -91 1007 375 
Q 556 841 556 1753 
L 556 4666 
z
" transform="scale(0.015625)"/>
      <path id="DejaVuSans-43" d="M 4122 4306 
L 4122 3641 
Q 3803 3938 3442 4084 
Q 3081 4231 2675 4231 
Q 1875 4231 1450 3742 
Q 1025 3253 1025 2328 
Q 1025 1406 1450 917 
Q 1875 428 2675 428 
Q 3081 428 3442 575 
Q 3803 722 4122 1019 
L 4122 359 
Q 3791 134 3420 21 
Q 3050 -91 2638 -91 
Q 1578 -91 968 557 
Q 359 1206 359 2328 
Q 359 3453 968 4101 
Q 1578 4750 2638 4750 
Q 3056 4750 3426 4639 
Q 3797 4528 4122 4306 
z
" transform="scale(0.015625)"/>
      <path id="DejaVuSans-56" d="M 1831 0 
L 50 4666 
L 709 4666 
L 2188 738 
L 3669 4666 
L 4325 4666 
L 2547 0 
L 1831 0 
z
" transform="scale(0.015625)"/>
      <path id="DejaVuSans-52" d="M 2841 2188 
Q 3044 2119 3236 1894 
Q 3428 1669 3622 1275 
L 4263 0 
L 3584 0 
L 2988 1197 
Q 2756 1666 2539 1819 
Q 2322 1972 1947 1972 
L 1259 1972 
L 1259 0 
L 628 0 
L 628 4666 
L 2053 4666 
Q 2853 4666 3247 4331 
Q 3641 3997 3641 3322 
Q 3641 2881 3436 2590 
Q 3231 2300 2841 2188 
z
M 1259 4147 
L 1259 2491 
L 2053 2491 
Q 2509 2491 2742 2702 
Q 2975 2913 2975 3322 
Q 2975 3731 2742 3939 
Q 2509 4147 2053 4147 
L 1259 4147 
z
" transform="scale(0.015625)"/>
      <path id="DejaVuSans-47" d="M 3809 666 
L 3809 1919 
L 2778 1919 
L 2778 2438 
L 4434 2438 
L 4434 434 
Q 4069 175 3628 42 
Q 3188 -91 2688 -91 
Q 1594 -91 976 548 
Q 359 1188 359 2328 
Q 359 3472 976 4111 
Q 1594 4750 2688 4750 
Q 3144 4750 3555 4637 
Q 3966 4525 4313 4306 
L 4313 3634 
Q 3963 3931 3569 4081 
Q 3175 4231 2741 4231 
Q 1884 4231 1454 3753 
Q 1025 3275 1025 2328 
Q 1025 1384 1454 906 
Q 1884 428 2741 428 
Q 3075 428 3337 486 
Q 3600 544 3809 666 
z
" transform="scale(0.015625)"/>
      <path id="DejaVuSans-4c" d="M 628 4666 
L 1259 4666 
L 1259 531 
L 3531 531 
L 3531 0 
L 628 0 
L 628 4666 
z
" transform="scale(0.015625)"/>
      <path id="DejaVuSans-4d" d="M 628 4666 
L 1569 4666 
L 2759 1491 
L 3956 4666 
L 4897 4666 
L 4897 0 
L 4281 0 
L 4281 4097 
L 3078 897 
L 2444 897 
L 1241 4097 
L 1241 0 
L 628 0 
L 628 4666 
z
" transform="scale(0.015625)"/>
     </defs>
     <use xlink:href="#DejaVuSans-42"/>
     <use xlink:href="#DejaVuSans-55" x="68.603516"/>
     <use xlink:href="#DejaVuSans-43" x="141.796875"/>
     <use xlink:href="#DejaVuSans-56" x="211.621094"/>
     <use xlink:href="#DejaVuSans-31" x="280.029297"/>
     <use xlink:href="#DejaVuSans-30" x="343.652344"/>
     <use xlink:href="#DejaVuSans-52" x="407.275391"/>
     <use xlink:href="#DejaVuSans-47" x="476.757812"/>
     <use xlink:href="#DejaVuSans-4c" x="554.248047"/>
     <use xlink:href="#DejaVuSans-4d" x="609.960938"/>
     <use xlink:href="#DejaVuSans-4d" x="696.240234"/>
     <use xlink:href="#DejaVuSans-45" x="782.519531"/>
    </g>
   </g>
   <g id="text_24">
    <!-- bucvglmm -->
    <g transform="translate(333.117946 181.177014) scale(0.1 -0.1)">
     <defs>
      <path id="DejaVuSans-62" d="M 3116 1747 
Q 3116 2381 2855 2742 
Q 2594 3103 2138 3103 
Q 1681 3103 1420 2742 
Q 1159 2381 1159 1747 
Q 1159 1113 1420 752 
Q 1681 391 2138 391 
Q 2594 391 2855 752 
Q 3116 1113 3116 1747 
z
M 1159 2969 
Q 1341 3281 1617 3432 
Q 1894 3584 2278 3584 
Q 2916 3584 3314 3078 
Q 3713 2572 3713 1747 
Q 3713 922 3314 415 
Q 2916 -91 2278 -91 
Q 1894 -91 1617 61 
Q 1341 213 1159 525 
L 1159 0 
L 581 0 
L 581 4863 
L 1159 4863 
L 1159 2969 
z
" transform="scale(0.015625)"/>
      <path id="DejaVuSans-75" d="M 544 1381 
L 544 3500 
L 1119 3500 
L 1119 1403 
Q 1119 906 1312 657 
Q 1506 409 1894 409 
Q 2359 409 2629 706 
Q 2900 1003 2900 1516 
L 2900 3500 
L 3475 3500 
L 3475 0 
L 2900 0 
L 2900 538 
Q 2691 219 2414 64 
Q 2138 -91 1772 -91 
Q 1169 -91 856 284 
Q 544 659 544 1381 
z
M 1991 3584 
L 1991 3584 
z
" transform="scale(0.015625)"/>
      <path id="DejaVuSans-63" d="M 3122 3366 
L 3122 2828 
Q 2878 2963 2633 3030 
Q 2388 3097 2138 3097 
Q 1578 3097 1268 2742 
Q 959 2388 959 1747 
Q 959 1106 1268 751 
Q 1578 397 2138 397 
Q 2388 397 2633 464 
Q 2878 531 3122 666 
L 3122 134 
Q 2881 22 2623 -34 
Q 2366 -91 2075 -91 
Q 1284 -91 818 406 
Q 353 903 353 1747 
Q 353 2603 823 3093 
Q 1294 3584 2113 3584 
Q 2378 3584 2631 3529 
Q 2884 3475 3122 3366 
z
" transform="scale(0.015625)"/>
      <path id="DejaVuSans-76" d="M 191 3500 
L 800 3500 
L 1894 563 
L 2988 3500 
L 3597 3500 
L 2284 0 
L 1503 0 
L 191 3500 
z
" transform="scale(0.015625)"/>
      <path id="DejaVuSans-67" d="M 2906 1791 
Q 2906 2416 2648 2759 
Q 2391 3103 1925 3103 
Q 1463 3103 1205 2759 
Q 947 2416 947 1791 
Q 947 1169 1205 825 
Q 1463 481 1925 481 
Q 2391 481 2648 825 
Q 2906 1169 2906 1791 
z
M 3481 434 
Q 3481 -459 3084 -895 
Q 2688 -1331 1869 -1331 
Q 1566 -1331 1297 -1286 
Q 1028 -1241 775 -1147 
L 775 -588 
Q 1028 -725 1275 -790 
Q 1522 -856 1778 -856 
Q 2344 -856 2625 -561 
Q 2906 -266 2906 331 
L 2906 616 
Q 2728 306 2450 153 
Q 2172 0 1784 0 
Q 1141 0 747 490 
Q 353 981 353 1791 
Q 353 2603 747 3093 
Q 1141 3584 1784 3584 
Q 2172 3584 2450 3431 
Q 2728 3278 2906 2969 
L 2906 3500 
L 3481 3500 
L 3481 434 
z
" transform="scale(0.015625)"/>
      <path id="DejaVuSans-6c" d="M 603 4863 
L 1178 4863 
L 1178 0 
L 603 0 
L 603 4863 
z
" transform="scale(0.015625)"/>
     </defs>
     <use xlink:href="#DejaVuSans-62"/>
     <use xlink:href="#DejaVuSans-75" x="63.476562"/>
     <use xlink:href="#DejaVuSans-63" x="126.855469"/>
     <use xlink:href="#DejaVuSans-76" x="181.835938"/>
     <use xlink:href="#DejaVuSans-67" x="241.015625"/>
     <use xlink:href="#DejaVuSans-6c" x="304.492188"/>
     <use xlink:href="#DejaVuSans-6d" x="332.275391"/>
     <use xlink:href="#DejaVuSans-6d" x="429.6875"/>
    </g>
   </g>
   <g id="text_25">
    <!-- BUCV10TE -->
    <g transform="translate(558.823019 368.340731) scale(0.1 -0.1)">
     <defs>
      <path id="DejaVuSans-54" d="M -19 4666 
L 3928 4666 
L 3928 4134 
L 2272 4134 
L 2272 0 
L 1638 0 
L 1638 4134 
L -19 4134 
L -19 4666 
z
" transform="scale(0.015625)"/>
     </defs>
     <use xlink:href="#DejaVuSans-42"/>
     <use xlink:href="#DejaVuSans-55" x="68.603516"/>
     <use xlink:href="#DejaVuSans-43" x="141.796875"/>
     <use xlink:href="#DejaVuSans-56" x="211.621094"/>
     <use xlink:href="#DejaVuSans-31" x="280.029297"/>
     <use xlink:href="#DejaVuSans-30" x="343.652344"/>
     <use xlink:href="#DejaVuSans-54" x="407.275391"/>
     <use xlink:href="#DejaVuSans-45" x="468.359375"/>
    </g>
   </g>
   <g id="text_26">
    <!-- bucvte -->
    <g transform="translate(488.763116 370.28178) scale(0.1 -0.1)">
     <use xlink:href="#DejaVuSans-62"/>
     <use xlink:href="#DejaVuSans-75" x="63.476562"/>
     <use xlink:href="#DejaVuSans-63" x="126.855469"/>
     <use xlink:href="#DejaVuSans-76" x="181.835938"/>
     <use xlink:href="#DejaVuSans-74" x="241.015625"/>
     <use xlink:href="#DejaVuSans-65" x="280.224609"/>
    </g>
   </g>
   <g id="text_27">
    <!-- BUCV2RGLMME -->
    <g transform="translate(335.352938 150.994305) scale(0.1 -0.1)">
     <use xlink:href="#DejaVuSans-42"/>
     <use xlink:href="#DejaVuSans-55" x="68.603516"/>
     <use xlink:href="#DejaVuSans-43" x="141.796875"/>
     <use xlink:href="#DejaVuSans-56" x="211.621094"/>
     <use xlink:href="#DejaVuSans-32" x="280.029297"/>
     <use xlink:href="#DejaVuSans-52" x="343.652344"/>
     <use xlink:href="#DejaVuSans-47" x="413.134766"/>
     <use xlink:href="#DejaVuSans-4c" x="490.625"/>
     <use xlink:href="#DejaVuSans-4d" x="546.337891"/>
     <use xlink:href="#DejaVuSans-4d" x="632.617188"/>
     <use xlink:href="#DejaVuSans-45" x="718.896484"/>
    </g>
   </g>
   <g id="text_28">
    <!-- BUCV2TE -->
    <g transform="translate(551.58094 399.121775) scale(0.1 -0.1)">
     <use xlink:href="#DejaVuSans-42"/>
     <use xlink:href="#DejaVuSans-55" x="68.603516"/>
     <use xlink:href="#DejaVuSans-43" x="141.796875"/>
     <use xlink:href="#DejaVuSans-56" x="211.621094"/>
     <use xlink:href="#DejaVuSans-32" x="280.029297"/>
     <use xlink:href="#DejaVuSans-54" x="343.652344"/>
     <use xlink:href="#DejaVuSans-45" x="404.736328"/>
    </g>
   </g>
   <g id="text_29">
    <!-- BUCV5RGLMME -->
    <g transform="translate(333.284685 132.221302) scale(0.1 -0.1)">
     <defs>
      <path id="DejaVuSans-35" d="M 691 4666 
L 3169 4666 
L 3169 4134 
L 1269 4134 
L 1269 2991 
Q 1406 3038 1543 3061 
Q 1681 3084 1819 3084 
Q 2600 3084 3056 2656 
Q 3513 2228 3513 1497 
Q 3513 744 3044 326 
Q 2575 -91 1722 -91 
Q 1428 -91 1123 -41 
Q 819 9 494 109 
L 494 744 
Q 775 591 1075 516 
Q 1375 441 1709 441 
Q 2250 441 2565 725 
Q 2881 1009 2881 1497 
Q 2881 1984 2565 2268 
Q 2250 2553 1709 2553 
Q 1456 2553 1204 2497 
Q 953 2441 691 2322 
L 691 4666 
z
" transform="scale(0.015625)"/>
     </defs>
     <use xlink:href="#DejaVuSans-42"/>
     <use xlink:href="#DejaVuSans-55" x="68.603516"/>
     <use xlink:href="#DejaVuSans-43" x="141.796875"/>
     <use xlink:href="#DejaVuSans-56" x="211.621094"/>
     <use xlink:href="#DejaVuSans-35" x="280.029297"/>
     <use xlink:href="#DejaVuSans-52" x="343.652344"/>
     <use xlink:href="#DejaVuSans-47" x="413.134766"/>
     <use xlink:href="#DejaVuSans-4c" x="490.625"/>
     <use xlink:href="#DejaVuSans-4d" x="546.337891"/>
     <use xlink:href="#DejaVuSans-4d" x="632.617188"/>
     <use xlink:href="#DejaVuSans-45" x="718.896484"/>
    </g>
   </g>
   <g id="text_30">
    <!-- BUCV5TE -->
    <g transform="translate(553.214945 380.403749) scale(0.1 -0.1)">
     <use xlink:href="#DejaVuSans-42"/>
     <use xlink:href="#DejaVuSans-55" x="68.603516"/>
     <use xlink:href="#DejaVuSans-43" x="141.796875"/>
     <use xlink:href="#DejaVuSans-56" x="211.621094"/>
     <use xlink:href="#DejaVuSans-35" x="280.029297"/>
     <use xlink:href="#DejaVuSans-54" x="343.652344"/>
     <use xlink:href="#DejaVuSans-45" x="404.736328"/>
    </g>
   </g>
   <g id="text_31">
    <!-- CBE -->
    <g transform="translate(356.42293 451.848466) scale(0.1 -0.1)">
     <use xlink:href="#DejaVuSans-43"/>
     <use xlink:href="#DejaVuSans-42" x="69.824219"/>
     <use xlink:href="#DejaVuSans-45" x="138.427734"/>
    </g>
   </g>
   <g id="text_32">
    <!-- supervised -->
    <g transform="translate(315.052506 425.733398) scale(0.1 -0.1)">
     <defs>
      <path id="DejaVuSans-70" d="M 1159 525 
L 1159 -1331 
L 581 -1331 
L 581 3500 
L 1159 3500 
L 1159 2969 
Q 1341 3281 1617 3432 
Q 1894 3584 2278 3584 
Q 2916 3584 3314 3078 
Q 3713 2572 3713 1747 
Q 3713 922 3314 415 
Q 2916 -91 2278 -91 
Q 1894 -91 1617 61 
Q 1341 213 1159 525 
z
M 3116 1747 
Q 3116 2381 2855 2742 
Q 2594 3103 2138 3103 
Q 1681 3103 1420 2742 
Q 1159 2381 1159 1747 
Q 1159 1113 1420 752 
Q 1681 391 2138 391 
Q 2594 391 2855 752 
Q 3116 1113 3116 1747 
z
" transform="scale(0.015625)"/>
     </defs>
     <use xlink:href="#DejaVuSans-73"/>
     <use xlink:href="#DejaVuSans-75" x="52.099609"/>
     <use xlink:href="#DejaVuSans-70" x="115.478516"/>
     <use xlink:href="#DejaVuSans-65" x="178.955078"/>
     <use xlink:href="#DejaVuSans-72" x="240.478516"/>
     <use xlink:href="#DejaVuSans-76" x="281.591797"/>
     <use xlink:href="#DejaVuSans-69" x="340.771484"/>
     <use xlink:href="#DejaVuSans-73" x="368.554688"/>
     <use xlink:href="#DejaVuSans-65" x="420.654297"/>
     <use xlink:href="#DejaVuSans-64" x="482.177734"/>
    </g>
   </g>
   <g id="text_33">
    <!-- CE -->
    <g transform="translate(265.960792 291.011128) scale(0.1 -0.1)">
     <use xlink:href="#DejaVuSans-43"/>
     <use xlink:href="#DejaVuSans-45" x="69.824219"/>
    </g>
   </g>
   <g id="text_34">
    <!-- unsupervised -->
    <g transform="translate(205.230187 317.908082) scale(0.1 -0.1)">
     <use xlink:href="#DejaVuSans-75"/>
     <use xlink:href="#DejaVuSans-6e" x="63.378906"/>
     <use xlink:href="#DejaVuSans-73" x="126.757812"/>
     <use xlink:href="#DejaVuSans-75" x="178.857422"/>
     <use xlink:href="#DejaVuSans-70" x="242.236328"/>
     <use xlink:href="#DejaVuSans-65" x="305.712891"/>
     <use xlink:href="#DejaVuSans-72" x="367.236328"/>
     <use xlink:href="#DejaVuSans-76" x="408.349609"/>
     <use xlink:href="#DejaVuSans-69" x="467.529297"/>
     <use xlink:href="#DejaVuSans-73" x="495.3125"/>
     <use xlink:href="#DejaVuSans-65" x="547.412109"/>
     <use xlink:href="#DejaVuSans-64" x="608.935547"/>
    </g>
   </g>
   <g id="text_35">
    <!-- CV10RGLMME -->
    <g transform="translate(91.359655 464.25506) scale(0.1 -0.1)">
     <use xlink:href="#DejaVuSans-43"/>
     <use xlink:href="#DejaVuSans-56" x="69.824219"/>
     <use xlink:href="#DejaVuSans-31" x="138.232422"/>
     <use xlink:href="#DejaVuSans-30" x="201.855469"/>
     <use xlink:href="#DejaVuSans-52" x="265.478516"/>
     <use xlink:href="#DejaVuSans-47" x="334.960938"/>
     <use xlink:href="#DejaVuSans-4c" x="412.451172"/>
     <use xlink:href="#DejaVuSans-4d" x="468.164062"/>
     <use xlink:href="#DejaVuSans-4d" x="554.443359"/>
     <use xlink:href="#DejaVuSans-45" x="640.722656"/>
    </g>
   </g>
   <g id="text_36">
    <!-- cvglmm -->
    <g transform="translate(169.835002 428.368935) scale(0.1 -0.1)">
     <use xlink:href="#DejaVuSans-63"/>
     <use xlink:href="#DejaVuSans-76" x="54.980469"/>
     <use xlink:href="#DejaVuSans-67" x="114.160156"/>
     <use xlink:href="#DejaVuSans-6c" x="177.636719"/>
     <use xlink:href="#DejaVuSans-6d" x="205.419922"/>
     <use xlink:href="#DejaVuSans-6d" x="302.832031"/>
    </g>
   </g>
   <g id="text_37">
    <!-- CV10TE -->
    <g transform="translate(462.968982 254.554978) scale(0.1 -0.1)">
     <use xlink:href="#DejaVuSans-43"/>
     <use xlink:href="#DejaVuSans-56" x="69.824219"/>
     <use xlink:href="#DejaVuSans-31" x="138.232422"/>
     <use xlink:href="#DejaVuSans-30" x="201.855469"/>
     <use xlink:href="#DejaVuSans-54" x="265.478516"/>
     <use xlink:href="#DejaVuSans-45" x="326.5625"/>
    </g>
   </g>
   <g id="text_38">
    <!-- cvte -->
    <g transform="translate(481.073196 283.953175) scale(0.1 -0.1)">
     <use xlink:href="#DejaVuSans-63"/>
     <use xlink:href="#DejaVuSans-76" x="54.980469"/>
     <use xlink:href="#DejaVuSans-74" x="114.160156"/>
     <use xlink:href="#DejaVuSans-65" x="153.369141"/>
    </g>
   </g>
   <g id="text_39">
    <!-- CV2RGLMME -->
    <g transform="translate(159.202219 440.263997) scale(0.1 -0.1)">
     <use xlink:href="#DejaVuSans-43"/>
     <use xlink:href="#DejaVuSans-56" x="69.824219"/>
     <use xlink:href="#DejaVuSans-32" x="138.232422"/>
     <use xlink:href="#DejaVuSans-52" x="201.855469"/>
     <use xlink:href="#DejaVuSans-47" x="271.337891"/>
     <use xlink:href="#DejaVuSans-4c" x="348.828125"/>
     <use xlink:href="#DejaVuSans-4d" x="404.541016"/>
     <use xlink:href="#DejaVuSans-4d" x="490.820312"/>
     <use xlink:href="#DejaVuSans-45" x="577.099609"/>
    </g>
   </g>
   <g id="text_40">
    <!-- CV2TE -->
    <g transform="translate(506.682987 253.817671) scale(0.1 -0.1)">
     <use xlink:href="#DejaVuSans-43"/>
     <use xlink:href="#DejaVuSans-56" x="69.824219"/>
     <use xlink:href="#DejaVuSans-32" x="138.232422"/>
     <use xlink:href="#DejaVuSans-54" x="201.855469"/>
     <use xlink:href="#DejaVuSans-45" x="262.939453"/>
    </g>
   </g>
   <g id="text_41">
    <!-- CV5RGLMME -->
    <g transform="translate(129.781879 452.15906) scale(0.1 -0.1)">
     <use xlink:href="#DejaVuSans-43"/>
     <use xlink:href="#DejaVuSans-56" x="69.824219"/>
     <use xlink:href="#DejaVuSans-35" x="138.232422"/>
     <use xlink:href="#DejaVuSans-52" x="201.855469"/>
     <use xlink:href="#DejaVuSans-47" x="271.337891"/>
     <use xlink:href="#DejaVuSans-4c" x="348.828125"/>
     <use xlink:href="#DejaVuSans-4d" x="404.541016"/>
     <use xlink:href="#DejaVuSans-4d" x="490.820312"/>
     <use xlink:href="#DejaVuSans-45" x="577.099609"/>
    </g>
   </g>
   <g id="text_42">
    <!-- CV5TE -->
    <g transform="translate(544.586021 221.6863) scale(0.1 -0.1)">
     <use xlink:href="#DejaVuSans-43"/>
     <use xlink:href="#DejaVuSans-56" x="69.824219"/>
     <use xlink:href="#DejaVuSans-35" x="138.232422"/>
     <use xlink:href="#DejaVuSans-54" x="201.855469"/>
     <use xlink:href="#DejaVuSans-45" x="262.939453"/>
    </g>
   </g>
   <g id="text_43">
    <!-- DE -->
    <g transform="translate(271.873851 305.745259) scale(0.1 -0.1)">
     <use xlink:href="#DejaVuSans-44"/>
     <use xlink:href="#DejaVuSans-45" x="77.001953"/>
    </g>
   </g>
   <g id="text_44">
    <!-- DTEM10 -->
    <g transform="translate(428.630833 589.929945) scale(0.1 -0.1)">
     <use xlink:href="#DejaVuSans-44"/>
     <use xlink:href="#DejaVuSans-54" x="77.001953"/>
     <use xlink:href="#DejaVuSans-45" x="138.085938"/>
     <use xlink:href="#DejaVuSans-4d" x="201.269531"/>
     <use xlink:href="#DejaVuSans-31" x="287.548828"/>
     <use xlink:href="#DejaVuSans-30" x="351.171875"/>
    </g>
   </g>
   <g id="text_45">
    <!-- dte -->
    <g transform="translate(425.983061 563.130285) scale(0.1 -0.1)">
     <use xlink:href="#DejaVuSans-64"/>
     <use xlink:href="#DejaVuSans-74" x="63.476562"/>
     <use xlink:href="#DejaVuSans-65" x="102.685547"/>
    </g>
   </g>
   <g id="text_46">
    <!-- DTEM2 -->
    <g transform="translate(449.563 611.471597) scale(0.1 -0.1)">
     <use xlink:href="#DejaVuSans-44"/>
     <use xlink:href="#DejaVuSans-54" x="77.001953"/>
     <use xlink:href="#DejaVuSans-45" x="138.085938"/>
     <use xlink:href="#DejaVuSans-4d" x="201.269531"/>
     <use xlink:href="#DejaVuSans-32" x="287.548828"/>
    </g>
   </g>
   <g id="text_47">
    <!-- DTEM5 -->
    <g transform="translate(404.484087 612.512313) scale(0.1 -0.1)">
     <use xlink:href="#DejaVuSans-44"/>
     <use xlink:href="#DejaVuSans-54" x="77.001953"/>
     <use xlink:href="#DejaVuSans-45" x="138.085938"/>
     <use xlink:href="#DejaVuSans-4d" x="201.269531"/>
     <use xlink:href="#DejaVuSans-35" x="287.548828"/>
    </g>
   </g>
   <g id="text_48">
    <!-- ME01E -->
    <g transform="translate(284.908745 520.415599) scale(0.1 -0.1)">
     <use xlink:href="#DejaVuSans-4d"/>
     <use xlink:href="#DejaVuSans-45" x="86.279297"/>
     <use xlink:href="#DejaVuSans-30" x="149.462891"/>
     <use xlink:href="#DejaVuSans-31" x="213.085938"/>
     <use xlink:href="#DejaVuSans-45" x="276.708984"/>
    </g>
   </g>
   <g id="text_49">
    <!-- mee -->
    <g transform="translate(306.565507 473.086429) scale(0.1 -0.1)">
     <use xlink:href="#DejaVuSans-6d"/>
     <use xlink:href="#DejaVuSans-65" x="97.412109"/>
     <use xlink:href="#DejaVuSans-65" x="158.935547"/>
    </g>
   </g>
   <g id="text_50">
    <!-- ME10E -->
    <g transform="translate(262.000002 568.812892) scale(0.1 -0.1)">
     <use xlink:href="#DejaVuSans-4d"/>
     <use xlink:href="#DejaVuSans-45" x="86.279297"/>
     <use xlink:href="#DejaVuSans-31" x="149.462891"/>
     <use xlink:href="#DejaVuSans-30" x="213.085938"/>
     <use xlink:href="#DejaVuSans-45" x="276.708984"/>
    </g>
   </g>
   <g id="text_51">
    <!-- ME1E -->
    <g transform="translate(296.468414 496.623141) scale(0.1 -0.1)">
     <use xlink:href="#DejaVuSans-4d"/>
     <use xlink:href="#DejaVuSans-45" x="86.279297"/>
     <use xlink:href="#DejaVuSans-31" x="149.462891"/>
     <use xlink:href="#DejaVuSans-45" x="213.085938"/>
    </g>
   </g>
   <g id="text_52">
    <!-- MHE -->
    <g transform="translate(243.950737 303.946648) scale(0.1 -0.1)">
     <defs>
      <path id="DejaVuSans-48" d="M 628 4666 
L 1259 4666 
L 1259 2753 
L 3553 2753 
L 3553 4666 
L 4184 4666 
L 4184 0 
L 3553 0 
L 3553 2222 
L 1259 2222 
L 1259 0 
L 628 0 
L 628 4666 
z
" transform="scale(0.015625)"/>
     </defs>
     <use xlink:href="#DejaVuSans-4d"/>
     <use xlink:href="#DejaVuSans-48" x="86.279297"/>
     <use xlink:href="#DejaVuSans-45" x="161.474609"/>
    </g>
   </g>
   <g id="text_53">
    <!-- OE -->
    <g transform="translate(171.900517 222.144626) scale(0.1 -0.1)">
     <defs>
      <path id="DejaVuSans-4f" d="M 2522 4238 
Q 1834 4238 1429 3725 
Q 1025 3213 1025 2328 
Q 1025 1447 1429 934 
Q 1834 422 2522 422 
Q 3209 422 3611 934 
Q 4013 1447 4013 2328 
Q 4013 3213 3611 3725 
Q 3209 4238 2522 4238 
z
M 2522 4750 
Q 3503 4750 4090 4092 
Q 4678 3434 4678 2328 
Q 4678 1225 4090 567 
Q 3503 -91 2522 -91 
Q 1538 -91 948 565 
Q 359 1222 359 2328 
Q 359 3434 948 4092 
Q 1538 4750 2522 4750 
z
" transform="scale(0.015625)"/>
     </defs>
     <use xlink:href="#DejaVuSans-4f"/>
     <use xlink:href="#DejaVuSans-45" x="78.710938"/>
    </g>
   </g>
   <g id="text_54">
    <!-- OHE -->
    <g transform="translate(144.047853 195.716789) scale(0.1 -0.1)">
     <use xlink:href="#DejaVuSans-4f"/>
     <use xlink:href="#DejaVuSans-48" x="78.710938"/>
     <use xlink:href="#DejaVuSans-45" x="153.90625"/>
    </g>
   </g>
   <g id="text_55">
    <!-- PBTE0001 -->
    <g transform="translate(414.704537 425.634196) scale(0.1 -0.1)">
     <defs>
      <path id="DejaVuSans-50" d="M 1259 4147 
L 1259 2394 
L 2053 2394 
Q 2494 2394 2734 2622 
Q 2975 2850 2975 3272 
Q 2975 3691 2734 3919 
Q 2494 4147 2053 4147 
L 1259 4147 
z
M 628 4666 
L 2053 4666 
Q 2838 4666 3239 4311 
Q 3641 3956 3641 3272 
Q 3641 2581 3239 2228 
Q 2838 1875 2053 1875 
L 1259 1875 
L 1259 0 
L 628 0 
L 628 4666 
z
" transform="scale(0.015625)"/>
     </defs>
     <use xlink:href="#DejaVuSans-50"/>
     <use xlink:href="#DejaVuSans-42" x="60.302734"/>
     <use xlink:href="#DejaVuSans-54" x="128.90625"/>
     <use xlink:href="#DejaVuSans-45" x="189.990234"/>
     <use xlink:href="#DejaVuSans-30" x="253.173828"/>
     <use xlink:href="#DejaVuSans-30" x="316.796875"/>
     <use xlink:href="#DejaVuSans-30" x="380.419922"/>
     <use xlink:href="#DejaVuSans-31" x="444.042969"/>
    </g>
   </g>
   <g id="text_56">
    <!-- pbte -->
    <g transform="translate(380.15205 423.119937) scale(0.1 -0.1)">
     <use xlink:href="#DejaVuSans-70"/>
     <use xlink:href="#DejaVuSans-62" x="63.476562"/>
     <use xlink:href="#DejaVuSans-74" x="126.953125"/>
     <use xlink:href="#DejaVuSans-65" x="166.162109"/>
    </g>
   </g>
   <g id="text_57">
    <!-- PBTE001 -->
    <g transform="translate(406.042818 410.534276) scale(0.1 -0.1)">
     <use xlink:href="#DejaVuSans-50"/>
     <use xlink:href="#DejaVuSans-42" x="60.302734"/>
     <use xlink:href="#DejaVuSans-54" x="128.90625"/>
     <use xlink:href="#DejaVuSans-45" x="189.990234"/>
     <use xlink:href="#DejaVuSans-30" x="253.173828"/>
     <use xlink:href="#DejaVuSans-30" x="316.796875"/>
     <use xlink:href="#DejaVuSans-31" x="380.419922"/>
    </g>
   </g>
   <g id="text_58">
    <!-- PBTE01 -->
    <g transform="translate(365.359446 438.241425) scale(0.1 -0.1)">
     <use xlink:href="#DejaVuSans-50"/>
     <use xlink:href="#DejaVuSans-42" x="60.302734"/>
     <use xlink:href="#DejaVuSans-54" x="128.90625"/>
     <use xlink:href="#DejaVuSans-45" x="189.990234"/>
     <use xlink:href="#DejaVuSans-30" x="253.173828"/>
     <use xlink:href="#DejaVuSans-31" x="316.796875"/>
    </g>
   </g>
   <g id="text_59">
    <!-- RGLMME -->
    <g transform="translate(287.197248 386.270504) scale(0.1 -0.1)">
     <use xlink:href="#DejaVuSans-52"/>
     <use xlink:href="#DejaVuSans-47" x="69.482422"/>
     <use xlink:href="#DejaVuSans-4c" x="146.972656"/>
     <use xlink:href="#DejaVuSans-4d" x="202.685547"/>
     <use xlink:href="#DejaVuSans-4d" x="288.964844"/>
     <use xlink:href="#DejaVuSans-45" x="375.244141"/>
    </g>
   </g>
   <g id="text_60">
    <!-- glmm -->
    <g transform="translate(332.838498 374.375441) scale(0.1 -0.1)">
     <use xlink:href="#DejaVuSans-67"/>
     <use xlink:href="#DejaVuSans-6c" x="63.476562"/>
     <use xlink:href="#DejaVuSans-6d" x="91.259766"/>
     <use xlink:href="#DejaVuSans-6d" x="188.671875"/>
    </g>
   </g>
   <g id="text_61">
    <!-- SE -->
    <g transform="translate(252.299138 282.059656) scale(0.1 -0.1)">
     <defs>
      <path id="DejaVuSans-53" d="M 3425 4513 
L 3425 3897 
Q 3066 4069 2747 4153 
Q 2428 4238 2131 4238 
Q 1616 4238 1336 4038 
Q 1056 3838 1056 3469 
Q 1056 3159 1242 3001 
Q 1428 2844 1947 2747 
L 2328 2669 
Q 3034 2534 3370 2195 
Q 3706 1856 3706 1288 
Q 3706 609 3251 259 
Q 2797 -91 1919 -91 
Q 1588 -91 1214 -16 
Q 841 59 441 206 
L 441 856 
Q 825 641 1194 531 
Q 1563 422 1919 422 
Q 2459 422 2753 634 
Q 3047 847 3047 1241 
Q 3047 1584 2836 1778 
Q 2625 1972 2144 2069 
L 1759 2144 
Q 1053 2284 737 2584 
Q 422 2884 422 3419 
Q 422 4038 858 4394 
Q 1294 4750 2059 4750 
Q 2388 4750 2728 4690 
Q 3069 4631 3425 4513 
z
" transform="scale(0.015625)"/>
     </defs>
     <use xlink:href="#DejaVuSans-53"/>
     <use xlink:href="#DejaVuSans-45" x="63.476562"/>
    </g>
   </g>
   <g id="text_62">
    <!-- TE -->
    <g transform="translate(622.946864 340.687046) scale(0.1 -0.1)">
     <use xlink:href="#DejaVuSans-54"/>
     <use xlink:href="#DejaVuSans-45" x="61.083984"/>
    </g>
   </g>
   <g id="text_63">
    <!-- te -->
    <g transform="translate(564.11654 344.435668) scale(0.1 -0.1)">
     <use xlink:href="#DejaVuSans-74"/>
     <use xlink:href="#DejaVuSans-65" x="39.208984"/>
    </g>
   </g>
   <g id="text_64">
    <!-- WOEE -->
    <g transform="translate(379.302179 451.324867) scale(0.1 -0.1)">
     <defs>
      <path id="DejaVuSans-57" d="M 213 4666 
L 850 4666 
L 1831 722 
L 2809 4666 
L 3519 4666 
L 4500 722 
L 5478 4666 
L 6119 4666 
L 4947 0 
L 4153 0 
L 3169 4050 
L 2175 0 
L 1381 0 
L 213 4666 
z
" transform="scale(0.015625)"/>
     </defs>
     <use xlink:href="#DejaVuSans-57"/>
     <use xlink:href="#DejaVuSans-4f" x="98.876953"/>
     <use xlink:href="#DejaVuSans-45" x="177.587891"/>
     <use xlink:href="#DejaVuSans-45" x="240.771484"/>
    </g>
   </g>
   <g id="text_65">
    <!-- encoder -->
    <g transform="translate(321.301838 354.342437) scale(0.1 -0.1)">
     <use xlink:href="#DejaVuSans-65"/>
     <use xlink:href="#DejaVuSans-6e" x="61.523438"/>
     <use xlink:href="#DejaVuSans-63" x="124.902344"/>
     <use xlink:href="#DejaVuSans-6f" x="179.882812"/>
     <use xlink:href="#DejaVuSans-64" x="241.064453"/>
     <use xlink:href="#DejaVuSans-65" x="304.541016"/>
     <use xlink:href="#DejaVuSans-72" x="366.064453"/>
    </g>
   </g>
   <g id="patch_7">
    <path d="M 154.107953 206.664433 
Q 153.529706 206.160925 152.951458 205.657417 
" style="fill: none; stroke: #ffa500; stroke-width: 0.5; stroke-linecap: round"/>
   </g>
   <g id="patch_8">
    <path d="M 198.864313 247.256923 
Q 198.835087 247.264405 198.805861 247.271887 
" style="fill: none; stroke: #ffa500; stroke-width: 0.5; stroke-linecap: round"/>
   </g>
   <g id="patch_9">
    <path d="M 322.172511 110.862121 
Q 320.454 111.096131 318.735489 111.330141 
" style="fill: none; stroke: #ffa500; stroke-width: 0.5; stroke-linecap: round"/>
   </g>
   <g id="patch_10">
    <path d="M 334.462191 183.683078 
Q 334.107245 183.760609 333.752299 183.83814 
" style="fill: none; stroke: #ffa500; stroke-width: 0.5; stroke-linecap: round"/>
   </g>
   <g id="patch_11">
    <path d="M 556.851503 370.701121 
Q 555.431597 370.965587 554.011691 371.230054 
" style="fill: none; stroke: #ffa500; stroke-width: 0.5; stroke-linecap: round"/>
   </g>
   <g id="patch_12">
    <path d="M 522.698257 373.000146 
Q 523.246468 373.184807 523.794679 373.369467 
" style="fill: none; stroke: #ffa500; stroke-width: 0.5; stroke-linecap: round"/>
   </g>
   <g id="patch_13">
    <path d="M 338.260152 153.365772 
Q 336.818982 153.57805 335.377813 153.790328 
" style="fill: none; stroke: #ffa500; stroke-width: 0.5; stroke-linecap: round"/>
   </g>
   <g id="patch_14">
    <path d="M 552.565924 391.045786 
Q 552.458598 391.019367 552.351272 390.992948 
" style="fill: none; stroke: #ffa500; stroke-width: 0.5; stroke-linecap: round"/>
   </g>
   <g id="patch_15">
    <path d="M 336.191899 134.59277 
Q 334.750729 134.805048 333.30956 135.017326 
" style="fill: none; stroke: #ffa500; stroke-width: 0.5; stroke-linecap: round"/>
   </g>
   <g id="patch_16">
    <path d="M 551.225928 380.544654 
Q 543.31294 381.448583 535.399951 382.352513 
" style="fill: none; stroke: #ffa500; stroke-width: 0.5; stroke-linecap: round"/>
   </g>
   <g id="patch_17">
    <path d="M 377.060501 443.259756 
Q 377.076081 443.250892 377.091662 443.242028 
" style="fill: none; stroke: #ffa500; stroke-width: 0.5; stroke-linecap: round"/>
   </g>
   <g id="patch_18">
    <path d="M 368.176023 428.227652 
Q 368.599223 428.317188 369.022423 428.406725 
" style="fill: none; stroke: #ffa500; stroke-width: 0.5; stroke-linecap: round"/>
   </g>
   <g id="patch_19">
    <path d="M 266.792154 293.0918 
Q 266.209973 293.595308 265.627792 294.098816 
" style="fill: none; stroke: #ffa500; stroke-width: 0.5; stroke-linecap: round"/>
   </g>
   <g id="patch_20">
    <path d="M 270.256468 309.970364 
Q 271.216204 309.805469 272.17594 309.640575 
" style="fill: none; stroke: #ffa500; stroke-width: 0.5; stroke-linecap: round"/>
   </g>
   <g id="patch_21">
    <path d="M 121.791231 455.030199 
Q 119.158836 451.342285 116.526441 447.654371 
" style="fill: none; stroke: #ffa500; stroke-width: 0.5; stroke-linecap: round"/>
   </g>
   <g id="patch_22">
    <path d="M 170.417863 431.000968 
Q 169.625807 431.228795 168.833752 431.456622 
" style="fill: none; stroke: #ffa500; stroke-width: 0.5; stroke-linecap: round"/>
   </g>
   <g id="patch_23">
    <path d="M 501.430105 257.202757 
Q 502.174169 257.422711 502.918232 257.642665 
" style="fill: none; stroke: #ffa500; stroke-width: 0.5; stroke-linecap: round"/>
   </g>
   <g id="patch_24">
    <path d="M 480.656837 286.975862 
Q 480.596153 287.008363 480.53547 287.040863 
" style="fill: none; stroke: #ffa500; stroke-width: 0.5; stroke-linecap: round"/>
   </g>
   <g id="patch_25">
    <path d="M 157.208137 439.472852 
Q 151.865305 439.782243 146.522473 440.091634 
" style="fill: none; stroke: #ffa500; stroke-width: 0.5; stroke-linecap: round"/>
   </g>
   <g id="patch_26">
    <path d="M 506.834985 256.563614 
Q 506.351736 256.734486 505.868487 256.905359 
" style="fill: none; stroke: #ffa500; stroke-width: 0.5; stroke-linecap: round"/>
   </g>
   <g id="patch_27">
    <path d="M 127.800786 444.790384 
Q 127.791004 444.788999 127.781221 444.787614 
" style="fill: none; stroke: #ffa500; stroke-width: 0.5; stroke-linecap: round"/>
   </g>
   <g id="patch_28">
    <path d="M 544.738018 224.432242 
Q 544.25477 224.603115 543.771521 224.773987 
" style="fill: none; stroke: #ffa500; stroke-width: 0.5; stroke-linecap: round"/>
   </g>
   <g id="patch_29">
    <path d="M 270.144505 298.058375 
Q 270.048949 298.002364 269.953393 297.946354 
" style="fill: none; stroke: #ffa500; stroke-width: 0.5; stroke-linecap: round"/>
   </g>
   <g id="patch_30">
    <path d="M 429.29845 592.544264 
Q 428.446017 592.780948 427.593583 593.017633 
" style="fill: none; stroke: #ffa500; stroke-width: 0.5; stroke-linecap: round"/>
   </g>
   <g id="patch_31">
    <path d="M 427.013139 565.209481 
Q 426.292225 565.713727 425.571311 566.217973 
" style="fill: none; stroke: #ffa500; stroke-width: 0.5; stroke-linecap: round"/>
   </g>
   <g id="patch_32">
    <path d="M 449.858786 614.174206 
Q 449.272143 614.366745 448.6855 614.559284 
" style="fill: none; stroke: #ffa500; stroke-width: 0.5; stroke-linecap: round"/>
   </g>
   <g id="patch_33">
    <path d="M 439.305488 615.214921 
Q 439.892131 615.407461 440.478774 615.6 
" style="fill: none; stroke: #ffa500; stroke-width: 0.5; stroke-linecap: round"/>
   </g>
   <g id="patch_34">
    <path d="M 285.136658 523.137905 
Q 284.598577 523.320595 284.060495 523.503286 
" style="fill: none; stroke: #ffa500; stroke-width: 0.5; stroke-linecap: round"/>
   </g>
   <g id="patch_35">
    <path d="M 306.170452 476.093358 
Q 306.093479 476.133737 306.016507 476.174116 
" style="fill: none; stroke: #ffa500; stroke-width: 0.5; stroke-linecap: round"/>
   </g>
   <g id="patch_36">
    <path d="M 262.227915 571.535198 
Q 261.689833 571.717889 261.151752 571.90058 
" style="fill: none; stroke: #ffa500; stroke-width: 0.5; stroke-linecap: round"/>
   </g>
   <g id="patch_37">
    <path d="M 296.351658 499.471508 
Q 296.064661 499.591168 295.777664 499.710828 
" style="fill: none; stroke: #ffa500; stroke-width: 0.5; stroke-linecap: round"/>
   </g>
   <g id="patch_38">
    <path d="M 266.798069 295.432787 
Q 266.888114 295.386498 266.978159 295.34021 
" style="fill: none; stroke: #ffa500; stroke-width: 0.5; stroke-linecap: round"/>
   </g>
   <g id="patch_39">
    <path d="M 172.782434 224.225298 
Q 172.16485 224.728805 171.547267 225.232313 
" style="fill: none; stroke: #ffa500; stroke-width: 0.5; stroke-linecap: round"/>
   </g>
   <g id="patch_40">
    <path d="M 143.637139 198.735537 
Q 143.572508 198.770007 143.507877 198.804477 
" style="fill: none; stroke: #ffa500; stroke-width: 0.5; stroke-linecap: round"/>
   </g>
   <g id="patch_41">
    <path d="M 415.918106 428.157974 
Q 415.654087 428.218 415.390069 428.278025 
" style="fill: none; stroke: #ffa500; stroke-width: 0.5; stroke-linecap: round"/>
   </g>
   <g id="patch_42">
    <path d="M 398.04451 426.611732 
Q 398.054348 426.621487 398.064186 426.631241 
" style="fill: none; stroke: #ffa500; stroke-width: 0.5; stroke-linecap: round"/>
   </g>
   <g id="patch_43">
    <path d="M 407.264869 413.124939 
Q 406.367897 413.362457 405.470925 413.599974 
" style="fill: none; stroke: #ffa500; stroke-width: 0.5; stroke-linecap: round"/>
   </g>
   <g id="patch_44">
    <path d="M 403.851203 430.090948 
Q 404.302194 429.961514 404.753184 429.832081 
" style="fill: none; stroke: #ffa500; stroke-width: 0.5; stroke-linecap: round"/>
   </g>
   <g id="patch_45">
    <path d="M 302.290881 377.303309 
Q 301.813739 376.855028 301.336597 376.406748 
" style="fill: none; stroke: #ffa500; stroke-width: 0.5; stroke-linecap: round"/>
   </g>
   <g id="patch_46">
    <path d="M 330.845045 369.863802 
Q 325.324246 369.270437 319.803446 368.677072 
" style="fill: none; stroke: #ffa500; stroke-width: 0.5; stroke-linecap: round"/>
   </g>
   <g id="patch_47">
    <path d="M 253.085572 284.140327 
Q 252.534862 284.643835 251.984151 285.147343 
" style="fill: none; stroke: #ffa500; stroke-width: 0.5; stroke-linecap: round"/>
   </g>
   <g id="patch_48">
    <path d="M 623.722052 342.767718 
Q 623.179208 343.271226 622.636364 343.774733 
" style="fill: none; stroke: #ffa500; stroke-width: 0.5; stroke-linecap: round"/>
   </g>
   <g id="patch_49">
    <path d="M 564.745678 346.51634 
Q 564.305109 347.019848 563.86454 347.523355 
" style="fill: none; stroke: #ffa500; stroke-width: 0.5; stroke-linecap: round"/>
   </g>
   <g id="patch_50">
    <path d="M 379.329629 443.016841 
Q 378.9368 442.867636 378.54397 442.71843 
" style="fill: none; stroke: #ffa500; stroke-width: 0.5; stroke-linecap: round"/>
   </g>
   <g id="patch_51">
    <path d="M 321.921669 356.966597 
Q 321.103254 357.198361 320.284838 357.430125 
" style="fill: none; stroke: #ffa500; stroke-width: 0.5; stroke-linecap: round"/>
   </g>
   <g id="text_66">
    <!-- 2 Dimensional Representation of Poincare Algorithm -->
    <g transform="translate(212.139375 80.4) scale(0.12 -0.12)">
     <defs>
      <path id="DejaVuSans-61" d="M 2194 1759 
Q 1497 1759 1228 1600 
Q 959 1441 959 1056 
Q 959 750 1161 570 
Q 1363 391 1709 391 
Q 2188 391 2477 730 
Q 2766 1069 2766 1631 
L 2766 1759 
L 2194 1759 
z
M 3341 1997 
L 3341 0 
L 2766 0 
L 2766 531 
Q 2569 213 2275 61 
Q 1981 -91 1556 -91 
Q 1019 -91 701 211 
Q 384 513 384 1019 
Q 384 1609 779 1909 
Q 1175 2209 1959 2209 
L 2766 2209 
L 2766 2266 
Q 2766 2663 2505 2880 
Q 2244 3097 1772 3097 
Q 1472 3097 1187 3025 
Q 903 2953 641 2809 
L 641 3341 
Q 956 3463 1253 3523 
Q 1550 3584 1831 3584 
Q 2591 3584 2966 3190 
Q 3341 2797 3341 1997 
z
" transform="scale(0.015625)"/>
      <path id="DejaVuSans-41" d="M 2188 4044 
L 1331 1722 
L 3047 1722 
L 2188 4044 
z
M 1831 4666 
L 2547 4666 
L 4325 0 
L 3669 0 
L 3244 1197 
L 1141 1197 
L 716 0 
L 50 0 
L 1831 4666 
z
" transform="scale(0.015625)"/>
      <path id="DejaVuSans-68" d="M 3513 2113 
L 3513 0 
L 2938 0 
L 2938 2094 
Q 2938 2591 2744 2837 
Q 2550 3084 2163 3084 
Q 1697 3084 1428 2787 
Q 1159 2491 1159 1978 
L 1159 0 
L 581 0 
L 581 4863 
L 1159 4863 
L 1159 2956 
Q 1366 3272 1645 3428 
Q 1925 3584 2291 3584 
Q 2894 3584 3203 3211 
Q 3513 2838 3513 2113 
z
" transform="scale(0.015625)"/>
     </defs>
     <use xlink:href="#DejaVuSans-32"/>
     <use xlink:href="#DejaVuSans-20" x="63.623047"/>
     <use xlink:href="#DejaVuSans-44" x="95.410156"/>
     <use xlink:href="#DejaVuSans-69" x="172.412109"/>
     <use xlink:href="#DejaVuSans-6d" x="200.195312"/>
     <use xlink:href="#DejaVuSans-65" x="297.607422"/>
     <use xlink:href="#DejaVuSans-6e" x="359.130859"/>
     <use xlink:href="#DejaVuSans-73" x="422.509766"/>
     <use xlink:href="#DejaVuSans-69" x="474.609375"/>
     <use xlink:href="#DejaVuSans-6f" x="502.392578"/>
     <use xlink:href="#DejaVuSans-6e" x="563.574219"/>
     <use xlink:href="#DejaVuSans-61" x="626.953125"/>
     <use xlink:href="#DejaVuSans-6c" x="688.232422"/>
     <use xlink:href="#DejaVuSans-20" x="716.015625"/>
     <use xlink:href="#DejaVuSans-52" x="747.802734"/>
     <use xlink:href="#DejaVuSans-65" x="812.785156"/>
     <use xlink:href="#DejaVuSans-70" x="874.308594"/>
     <use xlink:href="#DejaVuSans-72" x="937.785156"/>
     <use xlink:href="#DejaVuSans-65" x="976.648438"/>
     <use xlink:href="#DejaVuSans-73" x="1038.171875"/>
     <use xlink:href="#DejaVuSans-65" x="1090.271484"/>
     <use xlink:href="#DejaVuSans-6e" x="1151.794922"/>
     <use xlink:href="#DejaVuSans-74" x="1215.173828"/>
     <use xlink:href="#DejaVuSans-61" x="1254.382812"/>
     <use xlink:href="#DejaVuSans-74" x="1315.662109"/>
     <use xlink:href="#DejaVuSans-69" x="1354.871094"/>
     <use xlink:href="#DejaVuSans-6f" x="1382.654297"/>
     <use xlink:href="#DejaVuSans-6e" x="1443.835938"/>
     <use xlink:href="#DejaVuSans-20" x="1507.214844"/>
     <use xlink:href="#DejaVuSans-6f" x="1539.001953"/>
     <use xlink:href="#DejaVuSans-66" x="1600.183594"/>
     <use xlink:href="#DejaVuSans-20" x="1635.388672"/>
     <use xlink:href="#DejaVuSans-50" x="1667.175781"/>
     <use xlink:href="#DejaVuSans-6f" x="1723.853516"/>
     <use xlink:href="#DejaVuSans-69" x="1785.035156"/>
     <use xlink:href="#DejaVuSans-6e" x="1812.818359"/>
     <use xlink:href="#DejaVuSans-63" x="1876.197266"/>
     <use xlink:href="#DejaVuSans-61" x="1931.177734"/>
     <use xlink:href="#DejaVuSans-72" x="1992.457031"/>
     <use xlink:href="#DejaVuSans-65" x="2031.320312"/>
     <use xlink:href="#DejaVuSans-20" x="2092.84375"/>
     <use xlink:href="#DejaVuSans-41" x="2124.630859"/>
     <use xlink:href="#DejaVuSans-6c" x="2193.039062"/>
     <use xlink:href="#DejaVuSans-67" x="2220.822266"/>
     <use xlink:href="#DejaVuSans-6f" x="2284.298828"/>
     <use xlink:href="#DejaVuSans-72" x="2345.480469"/>
     <use xlink:href="#DejaVuSans-69" x="2386.59375"/>
     <use xlink:href="#DejaVuSans-74" x="2414.376953"/>
     <use xlink:href="#DejaVuSans-68" x="2453.585938"/>
     <use xlink:href="#DejaVuSans-6d" x="2516.964844"/>
    </g>
   </g>
  </g>
 </g>
 <defs>
  <clipPath id="p0bc9ffe76e">
   <rect x="90" y="86.4" width="558" height="554.4"/>
  </clipPath>
 </defs>
</svg>
